<?xml version="1.0" encoding="UTF-8"?>
<svg xmlns="http://www.w3.org/2000/svg" viewBox="0 0 1133.86 1133.86">
  <g id="Laag_6" data-name="Laag 6">
    <g>
      <g>
        <path d="M248.23,513.15c-9.17,0-17.22-5.71-22.1-15.65-.08-.16-.16-.33-.23-.49-.34-.74-8.37-18.38-16.9-40.39-6.47-16.69-2.88-28.23,1.27-34.98,8.21-13.35,22.67-15.42,25.48-15.7.66-.06,1.31-.1,1.97-.1,19.87,0,32.1,15.49,34.25,31.2,2.64,12.69,4.28,32.8-2.21,58.11-3.41,13.29-13.73,18.01-21.53,18.01h0Z"/>
        <path d="M237.72,425.83c13.03,0,14.51,14.51,14.51,14.51,4.81,22,.07,42.38-1.84,49.84-.56,2.2-1.34,2.97-2.16,2.97-1.96,0-4.14-4.45-4.14-4.45,0,0-8.03-17.59-16.45-39.31-8.42-21.72,10.08-23.55,10.08-23.55M237.72,385.83c-1.32,0-2.63.07-3.95.2-12.92,1.28-30.36,8.56-40.55,25.13-5.34,8.68-12.8,27.07-2.88,52.68,8.74,22.55,17.01,40.71,17.36,41.47.15.33.31.66.47.98,8.24,16.82,23.21,26.86,40.06,26.86s35.05-10.22,40.9-33.04c7.39-28.82,5.52-52.06,2.47-66.88-.75-4.51-2.52-11.84-6.72-19.45-9.64-17.5-27.28-27.95-47.17-27.95h0Z" fill="#fff"/>
      </g>
      <g>
        <path d="M473.54,534.83c-.58,0-1.1-.02-1.56-.04-124.11-.67-174.94-16.74-183.37-19.74-24.13-6.93-32.88-21.22-35.97-32.05-3.56-12.48-1.08-24.56.92-34.26.49-2.4.96-4.66,1.26-6.59.84-5.44,2.92-10.48,6.24-15.12-3.58.33-7.09.52-10.48.52-18.6,0-31.68-5.72-38.88-16.99-7.36-11.53-11.16-31.09,12.51-58.83,10.74-12.59,23.14-22.2,23.66-22.6.03-.03.07-.05.1-.08,20.06-15.26,36.82-25.44,50.09-30.45-.7-2.2-1.22-4.47-1.57-6.8-4.54-30.51,25.63-55.5,31.54-60.06,45.05-38.88,121.12-59.02,132.04-61.76,34.23-12.66,42.01-13.72,47.04-13.72,9.29,0,17.2,5.4,20.17,13.75.73,2.06,2.15,7.38.12,13.43,6.09-.34,12.38-.51,18.86-.51,28.08,0,53.44,3.11,68.6,4.97,3.45.42,6.42.79,8.55,1,5.59.57,9.76,1.36,13.14,2.49,13.52,4.53,15.69,15.44,16.03,18.68.88,8.36-3.17,18.89-17.01,23.95-16.19,7.62-29.11,14.14-39.38,19.63,31.04,6.24,47.6,15.51,52.14,18.34,15.68,8.66,14.97,20.77,13.91,25.64-1.74,7.98-8.75,16.8-23.21,17.58-.36.02-.72.03-1.09.03-.61,0-1.21-.03-1.81-.08-9.16-.83-17.59-1.27-25.09-1.3,10.97,19.13,12.45,34.46,12.61,36.77,2.99,40.31-3.88,71.87-20.42,93.76-12.12,16.04-25.63,21.58-30.64,23.18-4.33,1.58-9.42,2.29-16.27,2.29-7.82,0-18.04-1.01-28.99-2.54.55,6.83-.59,12.05-1.17,14.18-5.21,19.76-13.86,34.42-25.7,43.55-11.02,8.5-21.57,9.77-26.89,9.77h0Z"/>
        <path d="M507.09,176.27c2.38,0,1.15,1.39-.22,2.5-2.11,1.72-4.22,3.44-6.23,5.27-16.07,14.61-23.58,22.81-26.91,26.84-.68.82-.03,1.96.91,1.96.13,0,.26-.02.4-.07,22.15-7.52,47.57-9.84,71.19-9.84,33.42,0,63.25,4.66,75.12,5.87,20.74,2.12,6.64,6.67,6.64,6.67-60.59,28.46-79.21,43.05-84.9,49-1.22,1.28-.34,3.39,1.42,3.46,65.35,2.33,93.64,21.32,93.64,21.32,10.35,5.42-.24,6-.24,6-10.84-.99-20-1.38-27.69-1.38-17.73,0-27.69,2.1-32.53,3.92-1.72.65-2.18,2.85-.89,4.15,25.08,25.19,26.86,50.13,26.86,50.13,6.33,85.29-37.6,96.58-37.6,96.58-2.05.86-5.44,1.23-9.78,1.23-23.61,0-75.11-10.99-89.49-14.16,48.82,11.61,40.02,40.56,40.02,40.56-9.57,36.47-28.97,38.56-33.29,38.56-.56,0-.86-.03-.86-.03-132.24-.66-177.91-18.79-177.91-18.79-33.47-9.24-22.89-33.24-20.18-50.8,2.85-18.51,43.39-27.51,59.9-30.42,9.1-1.61,16.47-8.6,18.11-17.69.07-.4.14-.8.19-1.21.68-4.93-4.43-6.48-11.12-6.48-11.19,0-26.76,4.33-26.76,4.33,0,0-38.18,13.82-64.35,13.82-10.09,0-18.39-2.06-22.02-7.75-13.06-20.46,31.52-54.83,31.52-54.83,36.91-28.08,51.44-29.98,54.69-29.98.51,0,.74.05.74.05,2.04-.33,4.11-.48,6.19-.48,24.31,0,50.95,20.89,60.43,29.04.14.12.29.17.43.17.45,0,.86-.49.6-.99-3.84-7.57-1.71-13.85.76-17.81.68-1.08-.16-2.39-1.36-2.39-.1,0-.2,0-.3.03-1.54.28-3.23.4-5.01.4-12.34,0-28.75-5.84-28.75-5.84-68.18-24.7-7.85-69.9-7.85-69.9,44.36-38.61,125.3-58.13,125.3-58.13,27.3-10.12,37.79-12.87,41.14-12.87M507.08,136.27c-7.57,0-16.35,1.1-53.01,14.61-6.61,1.71-25.5,6.85-48.24,15.41-38.1,14.35-68.53,31.15-90.45,49.95-9.32,7.26-40.13,34.08-39.36,70.48-11.83,6.22-25.11,14.98-40.17,26.43-.07.05-.13.1-.2.15-1.48,1.14-14.79,11.54-26.67,25.46-8.6,10.08-14.6,19.73-18.36,29.51-7.19,18.71-5.69,37.55,4.21,53.06,6.16,9.66,17.69,20.81,38.86,24.75-2.16,10.57-4.98,25.93-.28,42.4,3.31,11.61,9.93,21.96,19.16,29.94,7.98,6.91,18.03,12.17,29.89,15.66,12.39,4.33,65.6,20,189.02,20.7.68.03,1.37.04,2.06.04,25.6,0,57.46-17.27,71.17-65.45,4.18.32,8.08.49,11.59.49,8.99,0,16.3-1.08,22.76-3.37,8.04-2.63,25.14-10.23,40.11-30.04,19.56-25.88,27.77-62,24.4-107.35-.16-2.18-.69-7.15-2.42-13.98,20.65-1.52,36.53-14.47,40.61-33.23,3.04-13.97-1.4-28.44-11.86-38.72-3.21-3.15-6.98-5.92-11.51-8.45-2.03-1.24-5.06-2.97-9.16-4.95,19.29-10.18,24.66-28.21,23.22-41.8-1.36-12.85-9.84-28.93-29.57-35.54-4.81-1.61-10.36-2.7-17.46-3.42-1.93-.2-4.81-.55-8.15-.96-15.61-1.91-41.72-5.12-71.03-5.12-.09,0-.18,0-.27,0-5.94-16.21-21.15-26.67-38.87-26.67h-.01Z" fill="#fff"/>
      </g>
      <g>
        <path d="M441.25,728.15c-.51,0-1.09-.02-1.6-.06-31.88-2.45-63.02-16.88-85.81-30.38-3.71,5.99-10.33,9.7-17.39,9.7-3.41,0-6.79-.86-9.79-2.5-56.75-30.92-71.76-77.97-74.36-112-2.48-32.47,5.85-59.11,7.76-64.71,2.76-9.87,12.74-30.14,48.03-30.14,23.84,0,49.5,9,52.35,10.02.27.1.55.2.81.31,40.98,16.82,65.92,40,74.15,68.9,9.01,31.65-5.99,58.65-10.73,66.09-4.8,10.89-4.71,24.89,26.6,45.86.59.39,1.12.75,1.6,1.08,7.56,5.13,10.84,14.46,8.15,23.2-2.69,8.74-10.63,14.61-19.77,14.61h0Z"/>
        <path d="M308.09,518.07c21.04,0,45.57,8.84,45.57,8.84,100.83,41.38,53.47,106.74,53.47,106.74-18.93,39.62,23.87,66.02,34.49,73.23.57.39.28,1.27-.38,1.27-.02,0-.04,0-.06,0-48.55-3.73-97.33-40.11-108.86-49.41-.44-.36-.95-.52-1.45-.52-1.08,0-2.11.75-2.31,1.95-1.65,9.7,6.24,22.89,8.27,26.6.17.31-.08.64-.38.64-.07,0-.14-.02-.21-.05-94.59-51.54-57.04-153.27-57.04-153.27,3.05-12.3,15.23-16.02,28.9-16.02M308.1,478.07h0c-13.58,0-25.62,2.47-35.76,7.35-15.62,7.51-26.69,20.54-31.38,36.86-2.76,8.2-11.29,36.94-8.59,72.17,1.88,24.58,8.78,47.25,20.5,67.36,14.55,24.96,36.16,45.38,64.24,60.68,5.92,3.23,12.61,4.93,19.35,4.93,7.09,0,13.97-1.89,19.97-5.31,28.68,15.25,56.16,23.97,81.71,25.93.02,0,.05,0,.07,0,1.01.08,2.04.11,3.05.11,17.97,0,33.6-11.55,38.89-28.73,5.29-17.18-1.15-35.52-16.02-45.62-.51-.35-1.08-.73-1.71-1.15-4.61-3.09-13.2-8.85-17.97-15.39-1.83-2.51-2.05-3.75-2.05-3.8,0-.06.02-.39.22-1.01,7.19-11.83,22.68-43.24,12.05-80.62-4.88-17.17-14.53-32.81-28.67-46.48-14.33-13.85-33.54-25.78-57.12-35.46-.54-.22-1.08-.43-1.63-.63-3.18-1.15-31.89-11.21-59.13-11.21h0Z" fill="#fff"/>
      </g>
      <g>
        <path d="M466.34,740.12c-6.06,0-11.78-2.66-15.7-7.28-1.37-1.61-4.86-5.4-12.74-12.52-2.71-2.44-5.89-4.96-9.74-7.68-31.81-22.55-41.1-62.57-24.86-107.07,2.92-7.99,2.17-16.81-2.04-24.21-8.74-15.34-24.45-29.26-29.05-33.17-6.65-5.65-9.1-14.93-6.09-23.11,3.01-8.18,10.88-13.68,19.6-13.68.04,0,.08,0,.11,0,41.92.23,72.11,5.03,90.06,9.02,16.02,3.56,30.89,9.55,44.22,17.82,40.64,25.21,42.51,54.74,41.94,64.19.09,7.6-2.46,22.36-21.46,32.25-7.34,3.82-16.75,6.7-27.95,8.56-12.8,2.13-23.54,10.85-28.02,22.75-7.11,18.91-.83,40.76,1.26,47,2.1,6.27,1.05,13.21-2.8,18.57-3.86,5.37-10.12,8.57-16.73,8.57h0Z"/>
        <path d="M385.71,531.4h0c40.39.22,69.16,4.84,85.83,8.54,13.43,2.98,26.33,8.04,38.01,15.29,36.34,22.54,32.45,46.74,32.45,46.74,1.05,13.51-18.6,19.2-32.65,21.53-19.71,3.27-36.43,16.74-43.46,35.44-9.25,24.59-2.16,50.92,1.02,60.41.15.43-.2.78-.57.78-.16,0-.32-.07-.45-.22-3.71-4.37-9.81-10.11-14.59-14.43-3.66-3.3-7.56-6.31-11.58-9.16-34.57-24.5-23.93-66.65-17.64-83.9,4.93-13.49,3.66-28.49-3.46-40.97-10.29-18.05-27.78-33.68-33.49-38.52-.62-.52-.24-1.54.57-1.54M385.72,491.4h0c-17.08,0-32.5,10.77-38.38,26.8-5.88,16.03-1.08,34.21,11.94,45.25,7.81,6.62,18.94,17.88,24.61,27.81,1.3,2.28,1.53,4.99.63,7.45-4.72,12.94-10.1,33.02-8.87,55.16.78,14.07,4.13,27.21,9.95,39.07,7.03,14.3,17.45,26.42,31,36.02,3.2,2.27,5.78,4.3,7.9,6.21,7.68,6.94,10.44,10.07,10.91,10.63,7.73,9.1,19.01,14.33,30.94,14.33,13.03,0,25.36-6.32,32.97-16.9,7.6-10.57,9.67-24.25,5.52-36.6-3.07-9.17-5.31-23.47-1.5-33.6,1.97-5.25,6.8-9.11,12.58-10.07,13.28-2.21,24.69-5.76,33.9-10.55,20.48-10.66,32.3-28.96,32.24-49.51.34-6.85-.32-17.83-5.54-30.79-7.99-19.83-23.42-36.94-45.88-50.87-15.24-9.46-32.21-16.3-50.43-20.34-18.9-4.2-50.6-9.25-94.28-9.49-.07,0-.15,0-.22,0h0Z" fill="#fff"/>
      </g>
      <g>
        <path d="M554.96,615.74c-8.31,0-15.96-4.87-19.47-12.4-19.68-42.18-54.54-50.76-64.75-52.39-9.47-1.51-16.62-9.24-17.39-18.79-.77-9.56,5.05-18.34,14.15-21.36,10.61-3.51,24.24-9.91,28.95-20.46,4.3-9.62.18-20.56-1.18-23.69-2.95-6.76-2.3-14.49,1.74-20.66,4.04-6.17,10.85-9.86,18.23-9.86.56,0,1.13.02,1.7.07,26.29,2.05,46.93,18.07,58.11,45.1,6.95,16.78,8.22,32.68,8.42,36.34,3.93,42.4-4.39,72.55-8.17,83.57-2.97,8.69-11.15,14.54-20.34,14.54h0Z"/>
        <path d="M515.23,456.13s.1,0,.14,0c45.65,3.56,48.14,62.94,48.14,62.94,3.7,39.1-3.97,66.4-7.14,75.64-.23.67-.82,1.01-1.42,1.01-.54,0-1.08-.28-1.35-.86-23.96-51.33-67.54-61.74-79.73-63.68-.76-.12-.83-1.17-.1-1.41,57.98-19.18,44.55-60.29,39.82-71.13-.52-1.2.36-2.52,1.64-2.52M515.23,416.13c-14.14,0-27.21,7.07-34.96,18.91-7.75,11.84-9,26.65-3.33,39.62,1.28,2.94,1.72,6.46,1.24,7.53-.58,1.31-4.77,5.59-16.97,9.62-17.89,5.92-29.33,23.17-27.81,41.96,1.52,18.78,15.57,33.97,34.18,36.93,2.45.39,11.2,2.12,21.15,8.1,12.2,7.33,21.84,18.43,28.63,32.99,6.79,14.55,21.55,23.95,37.6,23.95,17.73,0,33.51-11.27,39.26-28.05,4.18-12.21,13.41-45.47,9.2-91.55-.35-5.69-2.02-23.48-9.89-42.49-5.94-14.35-14.15-26.37-24.41-35.72-13.89-12.67-31.4-20.16-50.62-21.66-1.1-.09-2.19-.13-3.26-.13h0Z" fill="#fff"/>
      </g>
      <g>
        <path d="M517.23,774.48c-.64,0-1.28-.03-1.92-.09-1.91-.18-19.14-2.15-35.47-14.6-15.03-11.46-32.13-33.85-28.8-75.54-.15-5.35.25-19.69,7.46-34.88,8.13-17.17,26.33-38.64,66.82-43.46.88-.11.88-.17,1.25-.17.08,0,.18,0,.32.01,3.03-.59,20.71-5.73,26.39-46.36,1.21-8.68,7.94-15.56,16.59-16.97,1.08-.18,2.16-.26,3.23-.26,7.49,0,14.47,4.22,17.89,11.08,2.72,5.47,26.01,54.45,5.21,90.56-6.96,12.08-18.42,21.13-32.26,25.48-19.4,6.1-41.47,20.06-36.56,51.9,1.64,8.91,4.8,19.58,6.66,22.45,4.16,6.44,4.28,14.7.29,21.25-3.65,6-10.15,9.61-17.08,9.61Z"/>
        <path d="M573.08,562.14s21.83,43.8,5.78,71.66c-4.57,7.94-12.19,13.64-20.93,16.39-15.09,4.74-58.38,22.97-50.29,74.32,0,0,3.79,21.01,9.58,29.97,0,0-51.97-4.99-46.14-69.82,0,0-4.22-51.65,56.61-58.9,0,0,36.6-.71,45.39-63.61M573.09,522.14c-2.14,0-4.29.17-6.45.52-17.3,2.82-30.75,16.58-33.18,33.94-2.75,19.69-8.61,27.67-11.09,29.51-51.76,6.37-73.56,36.97-81.95,54.69-8.49,17.91-9.5,34.81-9.4,42.87-1.49,20.36,1.18,38.8,7.96,54.83,6.33,14.97,16,27.49,28.72,37.19,20.31,15.49,41.62,18.22,45.68,18.61,1.28.12,2.56.18,3.83.18,13.87,0,26.87-7.21,34.17-19.22,7.79-12.81,7.75-28.86-.03-41.61-1.21-2.76-3.22-10.16-4.3-15.89-1.05-6.76-2.66-21.39,22.85-29.41,18.64-5.86,34.13-18.14,43.6-34.58,11.76-20.41,14.31-46.53,7.37-75.54-4.39-18.35-11.24-32.38-12.01-33.92-6.84-13.73-20.81-22.16-35.79-22.16h0Z" fill="#fff"/>
      </g>
      <g>
        <path d="M549.04,802.87c-8.3,0-15.55-4.77-18.9-12.01-1.87-1.06-3.09-2.18-4.56-3.84-27.34-30.99-28.65-69.3-28.69-70.92,0-.18,0-.35,0-.53,0-33.33,15.67-50.94,28.81-59.84,14.91-10.09,31.61-12.36,40.23-12.81.48-.03.96-.04,1.43-.04,14.04,0,25.98,10.85,27.18,24.7.45,5.18-.6,10.27-3.04,14.72-1.16,2.12-2.33,4.32-2.83,5.93-6.61,21.63-4.67,53.15-3.91,62.3.6,7.24-.44,14.58-2.99,21.23-6.18,16.09-16.04,24.29-21.37,27.75-3.38,2.2-7.31,3.36-11.35,3.36h0Z"/>
        <path d="M567.35,662.88c3.68,0,6.94,2.73,7.26,6.43.13,1.46-.21,2.57-.65,3.37-1.71,3.13-3.38,6.29-4.42,9.7-7.47,24.46-5.75,57.29-4.72,69.78.35,4.21-.21,8.47-1.73,12.41-4.31,11.21-10.93,16.42-13.59,18.14-.15.09-.31.14-.46.14-.38,0-.74-.25-.83-.66-1.01-4.56-7.63-8.43-7.63-8.43-22.85-25.9-23.69-58.21-23.69-58.21,0-45.88,36.7-51.98,50.08-52.67.13,0,.26-.01.39-.01M567.35,622.88c-.82,0-1.65.02-2.47.06-13.08.68-32.44,4.05-50.41,16.22-11.6,7.85-20.73,18.11-27.15,30.49-6.93,13.35-10.44,28.79-10.44,45.91,0,.35,0,.7.01,1.05.13,4.79,2.14,47.87,33.68,83.62,1.33,1.51,2.78,2.92,4.32,4.21,2.49,3.79,5.62,7.18,9.27,9.98,7.1,5.44,15.93,8.44,24.87,8.44,7.91,0,15.6-2.28,22.24-6.59,7.36-4.78,20.94-15.98,29.15-37.35,3.62-9.44,5.1-19.82,4.26-30.04-1.39-16.83-1.32-39.85,2.97-54.36.22-.48.68-1.35,1.37-2.61,4.34-7.92,6.22-16.93,5.43-26.06-1.05-12.15-6.71-23.26-15.94-31.3-8.64-7.53-19.71-11.67-31.17-11.67h0Z" fill="#fff"/>
      </g>
      <g>
        <path d="M846.64,603.59c-7.92,0-15.17-4.34-18.92-11.32-8.38-15.58-55.9-94.88-168.71-125.38-9.41-2.54-16.15-10.79-16.77-20.52-.21-3.33.31-6.57,1.45-9.55-7.64-3.35-15.03-7.8-21.68-13.69-11.4-8.76-12.89-17.62-11.57-24.24l-.1-.07c-8.75-5.85-14.07-15.64-14.23-26.2-.14-9.17-2.18-32.44-18.1-50.5-5.72-6.48-7.53-15.59-4.72-23.77,2.79-8.13,9.73-14.18,18.15-15.84-6.23-1.05-13.02-1.83-20.41-2.26-8.82-.51-16.47-6.54-19.04-14.99-2.57-8.45.43-17.71,7.47-23.05,11.25-8.53,30.33-21.33,50.42-27.43-10.04-3.38-22.01-5.44-36.28-5.44-16.23,0-34.52,2.65-54.36,7.89-1.79.47-3.63.71-5.48.71-8.12,0-15.43-4.51-19.1-11.77-3.66-7.25-2.93-15.82,1.89-22.36l4.6-6.22c-8.49-19.1-20.63-52.71-20.37-88.17.09-11.94,9.89-21.67,21.86-21.67,6.86,0,13.4,3.29,17.5,8.8,6.98,9.38,33.31,39.73,103.69,76.78-5.22-11.88-12.77-24.65-23.59-35.39-7.22-7.17-7.91-18.62-1.6-26.6,3.92-4.96,9.76-7.59,15.7-7.59,3.62,0,7.28.98,10.55,3.02,1.67,1.04,41.48,25.92,80.25,59.27,16.42,14.12,30.12,27.55,41.15,40.35,1.32-2.47,3.17-4.7,5.52-6.49,3.59-2.74,7.86-4.1,12.13-4.1,4.61,0,9.21,1.59,12.93,4.74.81.69,20.1,17.16,39.06,45.49,17.71,26.46,29.21,57.2,33.28,88.91,4.02,31.31.8,63.67-9.31,93.65.39,2,2.14,7.99,10.03,18.48,1.8,2.37,44.96,60.78,17.48,160.72-2.56,9.31-11.09,15.81-20.75,15.81h0Z"/>
        <path d="M502.63,87.76c.53,0,1.07.23,1.46.74,10.02,13.48,46.74,54.65,148.03,100.97.24.11.49.16.72.16,1,0,1.87-.88,1.71-1.98-1.71-11.66-9.76-53.65-40.23-83.9,0,0,158.92,98.87,145.46,162.96-11.77,56.07-20.63,67.48-22.66,69.46,1-.86,3.64-3.2,7.13-6.94,31.33-33.57,40.1-82.3,23.3-125.04-1.08-2.75-2.28-5.56-3.6-8.4,0,0,17.74,15.02,35.36,41.35,32.66,48.8,40.38,110.16,21.41,165.73-.11.32-.22.65-.33.97,0,0-4.9,10.69,13.56,35.23,0,0,39.36,51.84,14.18,143.4-.2.73-.83,1.12-1.46,1.12-.51,0-1.02-.25-1.31-.79-9.64-17.93-60.77-102.68-181.11-135.22-2.53-.68-2.77-4.18-.35-5.17,7.11-2.93,20.86-6.68,44.68-6.68,15.37,0,34.93,1.56,59.6,5.91.04,0,.08.01.12.01.56,0,.85-.74.36-1.11-5.15-3.8-16.64-13.35-6.98-16.73,1.32-.46,1.31-2.32-.03-2.72-3.94-1.2-10.1-2.56-17.64-2.56-5.45,0-11.64.71-18.23,2.72-10.36,3.15-21.07,5.04-31.9,5.04h-.04c-17.93,0-42.22-3.34-59.09-18.64,0,0-7.69-5.67-3.23-5.67,1.69,0,5.12.81,11.38,3.06,0,0,4.77,2.45,10.25,2.81.05,0,.1,0,.15,0,1.94,0,2.77-2.54,1.11-3.65l-32.93-22.03c-3.3-2.21-5.29-5.9-5.35-9.88-.19-12.31-2.99-40.61-23.1-63.42-2.11-2.39-.82-6.17,2.31-6.77,2.07-.39,4.85-.67,8.59-.67,11.93,0,33.59,2.77,72.84,13.19,0,0-17.94-49.31-104.56-54.37-1.11-.06-1.54-1.47-.66-2.14,8.58-6.5,37.18-26.84,59.66-26.83.77,0,1.53.02,2.28.07,0,0,.02,0,.05,0,1.32,0,28.86.38,44.64,31.67.11.23.31.32.51.32.34,0,.68-.29.56-.72-4.76-17.69-26.05-73.32-105.64-73.32-17.02,0-36.71,2.55-59.46,8.55-.13.03-.25.05-.37.05-1.09,0-1.83-1.29-1.12-2.25l7.25-9.81c2.7-3.65,3.19-8.48,1.28-12.59-6.52-13.97-20.65-48.4-20.39-83.72,0-1.12.92-1.82,1.86-1.82M502.63,47.76c-10.43,0-20.42,3.86-28.15,10.86-8.63,7.82-13.62,19-13.71,30.66-.25,33.08,9.14,64.35,17.61,85.75-7.43,12.18-8.1,27.24-1.59,40.16,7.08,14.04,21.25,22.77,36.96,22.77,3.56,0,7.12-.46,10.57-1.37,5.56-1.47,10.97-2.71,16.21-3.73-8.65,10.49-11.75,24.89-7.69,38.24,3.27,10.77,10.79,19.51,20.41,24.54-3.43,13.94.15,28.86,9.74,39.73,11.51,13.06,13,30.62,13.1,37.57.2,13.22,5.39,25.71,14.29,35.1.92,7.01,3.68,13.8,8.19,19.84,1.87,2.51,4.03,4.87,6.59,7.23,1.47,1.35,2.88,2.52,3.99,3.39,4.07,3.55,8.46,6.78,13.14,9.67,1.36,18.06,13.95,33.31,31.48,38.05,44.52,12.04,83.22,33.41,115,63.52,25.22,23.89,38,45.87,41.32,52.03,7.24,13.47,21.24,21.84,36.54,21.84,18.63,0,35.09-12.55,40.03-30.51,6.72-24.45,10.03-48.66,9.84-71.97-.16-19.15-2.68-37.74-7.48-55.24-8.2-29.9-20.48-47.29-23.14-50.83h0c-2.29-3.05-3.81-5.44-4.79-7.18,9.27-30.81,12.01-63.64,7.93-95.47-4.46-34.76-17.08-68.47-36.5-97.48-20.15-30.11-40.5-47.72-42.75-49.63-7.44-6.3-16.64-9.47-25.85-9.47-5.34,0-10.69,1.07-15.7,3.21-8.89-9.16-18.93-18.55-30.05-28.13-39.93-34.34-81-60.01-82.73-61.08-6.55-4.07-13.86-6.04-21.11-6.04-11.87,0-23.56,5.28-31.4,15.19-4.87,6.16-7.66,13.36-8.42,20.7-24.86-18.19-35.47-31.16-38.34-35.02-7.85-10.56-20.39-16.87-33.54-16.87h0s0,0,0,0h0Z" fill="#fff"/>
      </g>
      <g>
        <path d="M588.12,599.55c-8.52,0-16.08-5.11-19.26-13.03-7.49-18.63-31.07-82.97-20.29-128.64,2.19-9.28,8.23-17.32,16.56-22.04,4.47-2.54,15.47-10.71,20.88-31.67,2.52-9.78,11.34-16.61,21.45-16.61,7.73,0,14.77,3.93,18.83,10.53,5.37,8.72,26.61,38.21,74.56,51.33,9.36,2.56,15.75,11.12,15.54,20.82-.2,9.69-6.94,17.96-16.39,20.13-19.94,4.56-85.45,24.56-91.17,90.22-.95,10.82-9.85,18.97-20.7,18.97h0Z"/>
        <path d="M607.45,407.56c.68,0,1.37.32,1.79,1.01,7.56,12.29,32.27,45.35,86.32,60.14,1.12.31,1.1,1.9-.03,2.16-20.2,4.62-99.64,27.83-106.63,107.98-.04.46-.41.71-.78.71-.29,0-.57-.15-.71-.48-5.73-14.27-28.97-75.98-19.39-116.59.93-3.92,3.46-7.25,6.96-9.24,7.9-4.48,23.24-16.43,30.38-44.07.27-1.04,1.17-1.61,2.08-1.61M607.45,367.56c-19.22,0-36.01,13-40.81,31.61-3.69,14.3-10.13,18.57-11.39,19.28-13.15,7.46-22.69,20.16-26.15,34.84-5.52,23.38-4.18,52.54,3.98,86.66,5.95,24.87,14.03,46.07,17.22,54.03,6.24,15.53,21.09,25.57,37.82,25.57,9.59,0,18.91-3.4,26.25-9.56,8.33-7,13.43-16.83,14.38-27.68,4.55-52.2,59.09-68.66,75.7-72.46,18.4-4.21,31.53-20.33,31.93-39.2.4-18.88-12.04-35.54-30.26-40.53-40.89-11.19-58.41-35.38-62.81-42.52-7.72-12.55-21.13-20.04-35.86-20.04h0Z" fill="#fff"/>
      </g>
      <g>
        <path d="M585.98,821.51c-7.11-.12-13.89-3.37-19.09-9.14-9.57-10.63-19.55-34.28-11.75-123.56,9.53-109.08,49.88-162.14,62.02-175.8,3.9-4.39,9.49-6.9,15.34-6.9,6.53,0,12.73,3.15,16.59,8.42,3.85,5.26,4.96,12.12,2.98,18.34-3.75,11.76-20.8,72.44,11.43,112.72,8.28,10.35,7.46,25.22-1.91,34.6-31.31,31.33-64.59,80.35-55.29,115.38,1.63,6.16.29,12.85-3.59,17.9-3.88,5.04-9.99,8.05-16.35,8.05,0,0-.26,0-.38,0Z"/>
        <path d="M632.5,526.11c.33,0,.64.31.51.7-4.3,13.49-23.74,83.02,14.87,131.28,1.91,2.38,1.72,5.81-.44,7.97-16.06,16.07-75.05,79.74-60.48,134.65.11.41-.19.82-.61.82,0,0,0,0-.01,0-3.95-.07-20.41-6.45-11.28-110.96,9.19-105.13,48.44-154.57,57.05-164.26.11-.13.25-.18.39-.18M632.5,486.11c-11.56,0-22.6,4.96-30.29,13.61-13.17,14.82-56.93,72.14-66.99,187.34-3.33,38.05-3.77,67.23-1.36,89.21,2.49,22.75,8.27,38.47,18.17,49.47,8.95,9.94,20.88,15.54,33.61,15.76.24,0,.48,0,.72,0,12.53,0,24.56-5.93,32.2-15.85,7.64-9.93,10.29-23.09,7.08-35.21-3.23-12.17,1.87-30.28,14.35-51,12.8-21.24,29.27-38.63,35.75-45.12,16.58-16.59,18.04-42.92,3.38-61.23-26.41-33-9.95-87.98-7.99-94.14,3.91-12.27,1.71-25.81-5.89-36.21-7.61-10.41-19.85-16.63-32.74-16.63h0Z" fill="#fff"/>
      </g>
      <g>
        <path d="M658.24,757.71c-7.55,0-14.59-4.06-18.39-10.61-3.78-6.52-3.81-14.64-.06-21.19,8.33-14.57,24.9-52.11-1.13-85.95-16.26-21.14-23.54-46.41-21.04-73.08,4.02-42.94,31.97-80.05,72.94-96.85,6.25-2.56,12.7-4.72,19.17-6.4,3.03-.79,6.16-1.19,9.29-1.19,5.17,0,10.18,1.06,14.9,3.14l18.97,8.38c7.14,3.16,12.18,9.92,13.15,17.66,2.13,1.27,4.05,2.9,5.69,4.86,4.22,5.07,5.97,11.69,4.78,18.18-1.73,9.45-9.24,58.19,12.46,89.32,1.43,2.05,2.46,4.34,3.04,6.77,1.8,7.51.34,14.97-4,20.48-4.06,5.15-10.18,8.1-16.78,8.1h0c-4.56,0-8.72-1.31-12.88-3.84-13.42,35.68-40.32,88.58-88.83,118.97-3.4,2.13-7.3,3.25-11.28,3.25Z"/>
        <path d="M719.03,482.45c2.34,0,4.66.48,6.82,1.44l18.97,8.38c1.63.72,1.91,2.92.5,4.01-10.27,7.97-40.51,36.96-32.28,97.09.03.23.21.34.39.34s.36-.11.39-.34c1.94-13.79,11.96-73.99,40.17-84.72.25-.1.51-.14.75-.14,1.27,0,2.36,1.19,2.11,2.56-2.56,14.03-10.05,67.37,15.72,104.35,0,0,.94,3.91-1.34,3.91-2.03,0-6.61-3.11-16.67-14.87-.89-1.04-2.1-1.52-3.29-1.52-1.83,0-3.62,1.14-4.2,3.15-6.94,24.09-31.7,96.04-88.16,131.42-.22.14-.45.2-.66.2-.87,0-1.6-.97-1.09-1.87,8.34-14.58,31.58-63.59-2.64-108.07-15.28-19.87-18.69-40.72-16.97-59.01,3.37-35.94,27.22-66.52,60.62-80.21,5.11-2.1,10.66-4,16.61-5.55,1.4-.36,2.83-.55,4.26-.55M719.03,442.45c-4.83,0-9.65.62-14.33,1.83-7.33,1.91-14.64,4.35-21.72,7.25-23.09,9.47-43.22,24.86-58.21,44.52-15.36,20.15-24.72,44-27.06,68.97-2.98,31.79,5.7,61.92,25.1,87.14,18.7,24.31,5.97,52.73-.38,63.82-7.27,12.72-7.23,28.49.12,41.16,7.36,12.69,21.04,20.57,35.69,20.57,7.75,0,15.32-2.18,21.9-6.3,45.93-28.78,73.97-75.24,90.09-112.08.33,0,.67.01,1,.01,12.77,0,24.61-5.73,32.49-15.72,8.16-10.35,10.98-24.03,7.74-37.53-1.16-4.85-3.23-9.44-6.08-13.53-13.31-19.1-13.27-51.96-9.19-74.3,2.25-12.34-1.06-24.95-9.1-34.58-1.07-1.28-2.2-2.48-3.39-3.62-3.9-10.75-12.08-19.68-22.73-24.39l-18.97-8.38c-7.28-3.22-15.02-4.85-22.98-4.85h0Z" fill="#fff"/>
      </g>
      <g>
        <text transform="translate(412.1 891.6)" fill="none" font-family="BrickSansBold, &apos;Brick Sans&apos;" font-size="87.86" stroke="#fff" stroke-miterlimit="10" stroke-width="48"><tspan x="0" y="0">CODE</tspan></text>
        <text transform="translate(562.74 891.6)" fill="none" font-family="BrickSansBold, &apos;Brick Sans&apos;" font-size="50.56" stroke="#fff" stroke-miterlimit="10" stroke-width="48"><tspan x="0" y="0">for</tspan></text>
        <g>
          <path d="M404.96,964.48l-6.62,3.83,6.62,3.82v56.42c0,3.73-3.02,6.75-6.75,6.75h-59.5c-.47,0-.85-.38-.85-.85v-132.65c0-.38.31-.69.69-.69h59.66c3.73,0,6.75,3.02,6.75,6.75v56.63ZM374.82,931.33c0-1.87-1.52-3.38-3.38-3.38h-3.33v26.84h3.33c1.87,0,3.38-1.52,3.38-3.38v-20.07ZM374.82,984.91c0-1.82-1.48-3.29-3.29-3.29h-3.42v26.84h3.42c1.82,0,3.29-1.47,3.29-3.29v-20.25Z" fill="none" stroke="#fff" stroke-miterlimit="10" stroke-width="48"/>
          <path d="M444.62,927.94v26.84h23.55c3.68,0,6.66,2.98,6.66,6.66v20.18h-30.2v26.84h30.14c3.7,0,6.69,3,6.69,6.69v20.15h-67.1v-134.2h60.36c3.72,0,6.74,3.02,6.74,6.74v20.1h-36.83Z" fill="none" stroke="#fff" stroke-miterlimit="10" stroke-width="48"/>
          <path d="M557.37,1015.16v20.14h-67.1v-134.2h23.49c3.71,0,6.71,3,6.71,6.71v100.65h30.21c3.7,0,6.7,3,6.7,6.7Z" fill="none" stroke="#fff" stroke-miterlimit="10" stroke-width="48"/>
          <path d="M602.71,964.95v-35.74c0-.7-.57-1.27-1.27-1.27h-4.18c-.7,0-1.27.57-1.27,1.27v78.03c0,.7.57,1.27,1.27,1.27l10.96-.04c.7,0,1.26-.57,1.26-1.27v-12.16h-6.78v-23.38h30.19v56.94c0,3.7-3,6.7-6.7,6.7h-53.71c-3.7,0-6.7-3-6.7-6.7v-120.81c0-3.7,3-6.7,6.7-6.7h53.71c3.7,0,6.7,3,6.7,6.7v57.15h-30.19Z" fill="none" stroke="#fff" stroke-miterlimit="10" stroke-width="48"/>
          <path d="M672.67,907.75v127.55h-30.19v-134.2h23.54c3.67,0,6.65,2.98,6.65,6.65Z" fill="none" stroke="#fff" stroke-miterlimit="10" stroke-width="48"/>
          <path d="M749.46,901.1v127.49c0,3.71-3.01,6.71-6.71,6.71h-53.68c-3.71,0-6.71-3-6.71-6.71v-127.49h30.19v105.96c0,.77.62,1.4,1.4,1.4h3.91c.77,0,1.4-.62,1.4-1.4v-105.96h30.2Z" fill="none" stroke="#fff" stroke-miterlimit="10" stroke-width="48"/>
          <path d="M833.11,906.41v128.04c0,.47-.38.85-.85.85h-29.28v-66.98l-6.68,66.71h-.05s-6.82-66.72-6.82-66.72v67h-30.19v-128.87c0-2.94,2.39-5.33,5.33-5.33h24.94l1.91,19.32c.6,6.1,9.48,6.14,10.14.05l2.12-19.38h24.14c2.93,0,5.3,2.38,5.3,5.31Z" fill="none" stroke="#fff" stroke-miterlimit="10" stroke-width="48"/>
        </g>
      </g>
    </g>
    <g>
      <g>
        <path d="M248.99,505.15c-6.09,0-11.38-3.97-14.91-11.17-.05-.1-.09-.2-.14-.3-.33-.73-8.27-18.16-16.72-39.96-5.28-13.63-2.58-22.69.62-27.9,6.36-10.35,18.14-11.8,19.46-11.93.39-.04.79-.06,1.18-.06,17.08,0,25.01,14.39,26.36,24.53,2.5,11.82,4.1,30.76-2.07,54.8-2.27,8.84-8.6,11.99-13.78,11.99h0Z" fill="#12110c"/>
        <path d="M238.48,425.83c13.03,0,14.51,14.51,14.51,14.51,4.81,22,.07,42.38-1.84,49.84-.56,2.2-1.34,2.97-2.16,2.97-1.96,0-4.14-4.45-4.14-4.45,0,0-8.03-17.59-16.45-39.31-8.42-21.72,10.08-23.55,10.08-23.55M238.48,401.83c-.79,0-1.58.04-2.37.12-9.1.9-21.37,6-28.5,17.59-4.62,7.52-8.65,20.31-1.59,38.52,8.57,22.12,16.65,39.86,16.99,40.6.09.2.18.39.28.59,5.57,11.37,14.94,17.9,25.69,17.9,9.23,0,21.43-5.5,25.4-21.01,6.69-26.11,4.97-46.91,2.23-60.02-.49-3.07-1.76-8.76-4.99-14.62-6.89-12.5-18.97-19.67-33.16-19.67h0Z" fill="#12110c"/>
      </g>
      <g>
        <path d="M474.3,526.83c-.51,0-.96-.02-1.33-.04-125.67-.67-174.71-17-181.18-19.37-16.68-4.74-27.01-13.69-30.69-26.61-3.02-10.6-.76-21.61,1.06-30.45.51-2.5,1-4.86,1.33-6.98,1.93-12.52,12.8-22.75,32.3-30.4,2.21-.87,4.45-1.68,6.71-2.43-14.21,4.11-34.6,9.01-51.17,9.01-15.69,0-26.51-4.47-32.14-13.29-5.9-9.25-8.64-25.32,11.85-49.33,10.21-11.96,21.96-21.07,22.46-21.46,28.96-22.04,46.22-29.78,56.35-31.84-2.45-4.04-4.01-8.37-4.7-13-3.94-26.47,23.92-49.04,28.69-52.69,44.35-38.39,120.59-58.13,129.34-60.3,31.75-11.75,40.24-13.38,44.67-13.38,7.11,0,11.18,4.35,12.63,8.42.92,2.59,2.25,9.27-5.28,15.39-2.1,1.71-3.98,3.25-5.73,4.84-.09.08-.18.16-.27.24,11.69-1.48,24.31-2.23,37.79-2.23,27.59,0,52.65,3.07,67.62,4.91,3.49.43,6.51.8,8.71,1.02,4.99.51,8.61,1.18,11.41,2.12,8.75,2.93,10.34,9.32,10.62,11.93.28,2.62.19,11.36-12.11,15.7-29.16,13.72-48.03,23.99-60.19,31.38,45.16,5.35,67.83,18.33,71.91,20.87,10.26,5.57,11.22,12.33,10.19,17.06-1.44,6.61-7.36,10.83-15.83,11.29-.22.01-.43.02-.65.02-.36,0-.73-.02-1.09-.05-9.72-.88-18.67-1.33-26.61-1.33-5.46,0-10,.21-13.72.53,17.39,23.27,19.07,43.81,19.15,44.82,6.55,88.19-38.08,106.35-45.59,108.76-3.43,1.29-7.83,1.9-13.76,1.9-10.11,0-24.52-1.79-39.29-4.18,3.98,10.6,2,19.52,1.41,21.69-11.57,44.02-37.27,47.44-44.88,47.44h0ZM319.3,405.19c-1.11.39-3.91,1.37-7.89,2.65,8.06-2.23,15.77-3.81,21.76-4.87,1.19-.21,2.3-.61,3.32-1.16-6.63.78-13.95,2.51-17.19,3.39Z" fill="#12110c"/>
        <path d="M507.85,176.27c2.38,0,1.15,1.39-.22,2.5-2.11,1.72-4.22,3.44-6.23,5.27-16.07,14.61-23.58,22.81-26.91,26.84-.68.82-.04,1.96.91,1.96.13,0,.26-.02.4-.07,22.15-7.52,47.57-9.84,71.19-9.84,33.42,0,63.25,4.66,75.12,5.87,20.74,2.12,6.64,6.67,6.64,6.67-60.59,28.46-79.21,43.05-84.9,49-1.22,1.28-.34,3.39,1.42,3.46,65.35,2.33,93.64,21.32,93.64,21.32,10.35,5.42-.24,6-.24,6-10.84-.99-20-1.38-27.69-1.38-17.73,0-27.69,2.1-32.53,3.92-1.72.65-2.18,2.85-.89,4.15,25.08,25.19,26.86,50.13,26.86,50.13,6.33,85.29-37.6,96.58-37.6,96.58-2.05.86-5.44,1.23-9.78,1.23-23.61,0-75.11-10.99-89.49-14.16,48.82,11.61,40.02,40.56,40.02,40.56-9.57,36.47-28.97,38.56-33.29,38.56-.56,0-.86-.03-.86-.03-132.24-.66-177.91-18.79-177.91-18.79-33.47-9.24-22.89-33.24-20.18-50.8,2.85-18.51,43.39-27.51,59.9-30.42,9.1-1.61,16.47-8.6,18.11-17.69.07-.4.14-.8.19-1.21.68-4.93-4.44-6.48-11.12-6.48-11.19,0-26.76,4.33-26.76,4.33,0,0-38.18,13.82-64.35,13.82-10.09,0-18.39-2.06-22.02-7.75-13.06-20.46,31.52-54.83,31.52-54.83,36.91-28.08,51.44-29.98,54.69-29.98.51,0,.74.05.74.05,2.04-.33,4.11-.48,6.19-.48,24.31,0,50.95,20.89,60.43,29.04.14.12.29.17.43.17.45,0,.86-.49.6-.99-3.84-7.57-1.71-13.85.76-17.81.68-1.08-.16-2.39-1.36-2.39-.1,0-.2,0-.3.03-1.54.28-3.23.4-5.01.4-12.34,0-28.75-5.84-28.75-5.84-68.18-24.7-7.85-69.9-7.85-69.9,44.36-38.61,125.3-58.13,125.3-58.13,27.3-10.12,37.79-12.87,41.14-12.87M507.86,152.27h0c-5.59,0-13.51,1.07-48.23,13.9-11.85,2.99-87.99,23.35-133.42,62.52-2.48,1.94-9.67,7.84-16.59,16.14-16.42,19.68-17.94,36.74-16.33,47.58.19,1.27.43,2.54.73,3.79-13.03,5.48-28.84,15.33-47.71,29.69-.04.03-.08.06-.12.09-1.34,1.04-13.44,10.48-24.26,23.17-7.4,8.67-12.5,16.8-15.59,24.86-5.32,13.85-4.34,27.6,2.76,38.72,3.3,5.17,9.7,12.14,21.44,15.93,6.04,1.95,12.85,2.9,20.81,2.9,1.08,0,2.17-.02,3.27-.05-1.45,3.19-2.44,6.54-2.98,10.05-.28,1.83-.74,4.05-1.22,6.39-1.97,9.59-4.67,22.74-.85,36.16,3.36,11.78,12.79,27.3,38.56,34.75,4.3,1.53,17.66,5.82,42.86,9.98,38.18,6.3,85.84,9.65,141.65,9.96.5.02,1.06.04,1.66.04,5.82,0,17.38-1.38,29.33-10.6,12.58-9.7,21.71-25.1,27.15-45.79.5-1.87,1.31-5.61,1.41-10.53,9.36,1.2,18.01,1.96,24.87,1.96,7.34,0,12.86-.79,17.64-2.54,5.58-1.81,19.83-7.81,32.46-24.52,17.15-22.69,24.28-55.16,21.21-96.52-.18-2.36-1.49-15.4-9.88-32.3,5.59.19,11.62.57,18.01,1.15.72.07,1.45.1,2.18.1.43,0,.87-.01,1.3-.04,16.71-.91,24.85-11.3,26.9-20.73,1.86-8.56-.92-17.5-7.44-23.91-2.28-2.24-4.98-4.19-8.42-6.07-4.4-2.72-18.1-10.28-42.6-16.35,8.32-4.28,18.06-9.08,29.44-14.44,15.87-5.89,20.43-18.66,19.43-28.06-.41-3.84-2.96-16.76-18.74-22.05-3.66-1.23-8.11-2.08-14-2.68-2.09-.21-5.05-.58-8.47-1-15.24-1.87-40.75-5-69.08-5-4.74,0-9.39.09-13.93.27.37-3.81-.18-7.45-1.27-10.53-3.54-9.97-12.94-16.41-23.93-16.41h0Z" fill="#12110c"/>
      </g>
      <g>
        <path d="M442.01,720.15c-.31,0-.68-.01-.98-.04-34.93-2.68-69.16-20.57-91.51-34.91.4,2.77-.14,5.65-1.6,8.11-2.23,3.76-6.33,6.1-10.7,6.1-2.08,0-4.14-.53-5.97-1.53-53.58-29.2-67.75-73.53-70.2-105.58-2.42-31.66,5.9-57.33,7.43-61.74,2.54-9.44,11.19-24.5,40.38-24.5,22.87,0,48.56,9.16,49.64,9.55.17.06.33.12.49.19,38.59,15.84,61.97,37.27,69.49,63.69,8.41,29.55-6.46,54.58-10.1,60.1-8.85,19.47.19,36.87,29.21,56.31.57.38,1.09.73,1.55,1.05,4.64,3.16,6.65,8.88,5,14.24-1.65,5.36-6.52,8.96-12.12,8.96h0Z" fill="#12110c"/>
        <path d="M308.86,518.07c21.04,0,45.57,8.84,45.57,8.84,100.83,41.38,53.48,106.74,53.48,106.74-18.93,39.62,23.87,66.02,34.49,73.23.57.39.28,1.27-.38,1.27-.02,0-.04,0-.06,0-48.55-3.73-97.33-40.11-108.86-49.41-.44-.36-.95-.52-1.45-.52-1.08,0-2.11.75-2.31,1.95-1.65,9.7,6.24,22.89,8.27,26.6.17.31-.08.64-.38.64-.07,0-.14-.02-.21-.05-94.59-51.54-57.04-153.27-57.04-153.27,3.05-12.3,15.23-16.02,28.9-16.02M308.86,494.07s0,0,0,0c-37.9,0-48.8,22.1-51.86,32.97-2.08,6.14-10.44,33.29-7.92,66.18,2.68,35.01,18.11,83.42,76.44,115.21,3.58,1.95,7.62,2.98,11.69,2.98,7.12,0,13.87-3.16,18.47-8.45,22.88,13.18,53.27,26.72,84.43,29.11.62.05,1.26.07,1.9.07,10.9,0,20.39-7.01,23.59-17.44,3.21-10.43-.7-21.55-9.72-27.69-.48-.33-1.02-.69-1.62-1.09-28.43-19.05-29.44-30.85-25.32-40.57,5.43-8.45,20.51-36,11.08-69.15-8.58-30.14-34.31-54.2-76.47-71.51-.32-.13-.65-.26-.98-.38-2.91-1.05-29.19-10.26-53.71-10.26h0Z" fill="#12110c"/>
      </g>
      <g>
        <path d="M467.11,732.12c-3.7,0-7.19-1.62-9.6-4.45-2.61-3.07-7.4-7.79-13.49-13.3-2.94-2.66-6.37-5.36-10.47-8.27-17.84-12.64-27.93-31.25-29.18-53.79-.97-17.39,3.39-33.53,7.21-44.01,3.72-10.2,2.77-21.47-2.61-30.91-9.39-16.48-25.97-31.19-30.83-35.31-4.1-3.47-5.61-9.2-3.76-14.24,1.85-5.05,6.71-8.45,12.09-8.45,41.28.23,70.87,4.93,88.44,8.83,15.14,3.36,29.18,9.01,41.74,16.8,17.29,10.72,28.95,23.35,34.66,37.54,3.71,9.22,3.75,16.46,3.5,19.71.3,10.2-5.34,26.86-42.72,33.06-15.61,2.59-28.72,13.26-34.2,27.83-8.04,21.38-1.14,45.49,1.17,52.37,1.29,3.84.65,8.08-1.71,11.35-2.36,3.28-6.19,5.25-10.24,5.25h0Z" fill="#12110c"/>
        <path d="M386.48,531.4h0c40.39.22,69.16,4.84,85.83,8.54,13.43,2.98,26.33,8.04,38.01,15.29,36.34,22.54,32.45,46.74,32.45,46.74,1.05,13.51-18.6,19.2-32.65,21.53-19.71,3.27-36.43,16.73-43.46,35.44-9.25,24.59-2.16,50.92,1.02,60.41.15.43-.2.78-.57.78-.16,0-.32-.07-.45-.22-3.71-4.37-9.81-10.11-14.59-14.43-3.66-3.3-7.56-6.31-11.58-9.16-34.57-24.5-23.93-66.65-17.64-83.9,4.93-13.49,3.66-28.49-3.46-40.97-10.29-18.05-27.78-33.68-33.49-38.52-.62-.52-.24-1.54.57-1.54M386.48,507.4h0c-10.39,0-19.78,6.56-23.36,16.31-3.58,9.75-.66,20.82,7.27,27.53,9.23,7.82,21.47,20.36,28.16,32.1,3.63,6.37,4.27,13.97,1.76,20.85-4.21,11.53-9,29.36-7.92,48.79,1.46,26.33,13.3,48.09,34.23,62.92,3.72,2.63,6.78,5.05,9.37,7.39,5.63,5.09,10.15,9.52,12.38,12.15,4.68,5.52,11.51,8.68,18.75,8.68,7.9,0,15.37-3.83,19.98-10.24,4.6-6.4,5.85-14.69,3.34-22.17-1.99-5.93-7.96-26.65-1.31-44.33,3.98-10.58,13.53-18.32,24.93-20.21,11.62-1.93,21.42-4.94,29.14-8.96,20.69-10.77,23.65-26.99,23.61-35.57.3-4.83,0-13.73-4.37-24.56-6.69-16.6-19.97-31.16-39.47-43.25-13.71-8.5-29.01-14.67-45.46-18.32-18.14-4.03-48.63-8.88-90.9-9.11-.04,0-.09,0-.13,0h0Z" fill="#12110c"/>
      </g>
      <g>
        <path d="M555.72,607.74c-5.22,0-10.02-3.06-12.22-7.79-21.35-45.75-59.55-55.12-70.75-56.9-5.82-.93-10.21-5.67-10.68-11.54-.47-5.87,3.1-11.27,8.7-13.12,17.65-5.84,29-14.18,33.74-24.79,5.48-12.27,1.02-25.17-1.15-30.15-1.87-4.28-1.46-9.17,1.1-13.08,2.56-3.91,6.87-6.24,11.53-6.24.35,0,.71.01,1.08.04,23.47,1.83,41.22,15.73,51.34,40.18,6.57,15.87,7.69,31.22,7.83,33.85,3.83,40.96-4.14,69.87-7.76,80.41-1.87,5.46-7,9.13-12.77,9.13h0Z" fill="#12110c"/>
        <path d="M516,456.13s.1,0,.15,0c45.65,3.56,48.14,62.94,48.14,62.94,3.7,39.1-3.97,66.4-7.14,75.64-.23.67-.82,1.01-1.42,1.01-.54,0-1.08-.28-1.35-.86-23.96-51.33-67.54-61.74-79.73-63.68-.76-.12-.83-1.17-.1-1.41,57.98-19.18,44.55-60.29,39.82-71.13-.52-1.2.36-2.52,1.64-2.52M516,432.13c-8.72,0-16.79,4.36-21.57,11.67-4.78,7.31-5.55,16.45-2.06,24.45,1.2,2.75,4.82,12.33,1.19,20.46-4.12,9.22-16.71,15.03-26.55,18.29-10.87,3.59-17.81,14.07-16.89,25.48.92,11.4,9.46,20.62,20.75,22.42,9.72,1.55,42.91,9.74,61.76,50.13,4.17,8.94,13.24,14.71,23.1,14.71,10.9,0,20.59-6.93,24.13-17.24,3.85-11.25,12.36-42.02,8.37-85.18-.23-4-1.6-20.36-8.72-37.56-11.79-28.49-33.63-45.38-61.5-47.56-.68-.05-1.35-.08-2.01-.08h0Z" fill="#12110c"/>
      </g>
      <g>
        <path d="M517.99,766.48c-.38,0-.77-.02-1.15-.05-1.68-.16-16.82-1.9-31.38-13-13.49-10.29-28.83-30.58-25.64-68.95-.17-4.13-.09-17.4,6.68-31.69,7.27-15.34,23.67-34.55,60.54-38.94.48-.06.58-.09.92-.09.04,0,.09,0,.14,0,2.36-.23,26.95-3.8,33.87-53.28.73-5.21,4.76-9.34,9.95-10.18.65-.11,1.29-.16,1.94-.16,4.49,0,8.68,2.53,10.74,6.65,1.01,2.02,24.48,49.95,5.44,83-5.96,10.34-15.81,18.1-27.73,21.85-18.36,5.77-48.21,21.35-42.05,60.87,1.42,7.77,4.77,20.72,7.83,25.46,2.5,3.86,2.57,8.82.17,12.75-2.19,3.6-6.09,5.76-10.25,5.76Z" fill="#12110c"/>
        <path d="M573.84,562.14s21.83,43.8,5.78,71.66c-4.57,7.94-12.19,13.64-20.93,16.39-15.09,4.74-58.38,22.97-50.29,74.32,0,0,3.79,21.01,9.58,29.97,0,0-51.97-4.99-46.14-69.82,0,0-4.22-51.65,56.61-58.9,0,0,36.6-.71,45.39-63.61M573.85,538.14c-1.28,0-2.58.1-3.87.31-10.38,1.69-18.45,9.95-19.91,20.36-5.38,38.47-21.38,42.64-23.21,42.99-.42.03-.83.07-1.25.12-17.95,2.14-33.32,7.72-45.67,16.6-10.56,7.58-18.73,17.38-24.29,29.12-7.5,15.84-8.03,30.5-7.85,36.57-1.4,18.06.85,34.22,6.7,48.05,5.23,12.38,13.2,22.7,23.69,30.7,16.85,12.85,34.21,15.09,37.51,15.41.77.07,1.54.11,2.3.11,8.32,0,16.12-4.33,20.5-11.53,4.78-7.85,4.65-17.74-.33-25.47-1.83-3.06-4.75-13.68-6.09-20.96-4.44-29.01,15.92-41.81,33.82-47.43,14.81-4.65,27.07-14.35,34.53-27.3,21.84-37.92-2.27-88.68-5.1-94.34-4.1-8.24-12.49-13.3-21.47-13.3h0Z" fill="#12110c"/>
      </g>
      <g>
        <path d="M549.8,794.87c-5.67,0-10.54-3.61-12.23-8.91-.52-.55-1.56-1.38-2.36-1.87-1.17-.66-1.98-1.37-2.86-2.37-25.44-28.83-26.65-64.34-26.69-65.83,0-.11,0-.21,0-.32,0-45.31,31.75-63.11,61.46-64.66.34-.02.68-.03,1.01-.03,9.93,0,18.37,7.64,19.21,17.39.31,3.61-.41,7.12-2.09,10.18-1.42,2.59-2.75,5.1-3.46,7.44-7.02,22.99-5.02,55.79-4.24,65.29.5,6.05-.36,12.17-2.49,17.7-5.37,13.98-13.74,20.98-18.26,23.91-2.08,1.35-4.5,2.07-6.99,2.07h0Z" fill="#12110c"/>
        <path d="M568.12,662.88c3.68,0,6.94,2.73,7.26,6.43.13,1.46-.21,2.57-.65,3.37-1.71,3.13-3.38,6.29-4.42,9.7-7.47,24.46-5.75,57.29-4.72,69.78.35,4.21-.21,8.47-1.73,12.41-4.31,11.21-10.93,16.42-13.59,18.14-.15.09-.31.14-.46.14-.38,0-.74-.25-.83-.66-1.01-4.56-7.63-8.43-7.63-8.43-22.85-25.9-23.69-58.21-23.69-58.21,0-45.88,36.7-51.98,50.08-52.67.13,0,.26-.01.39-.01M568.12,638.88c-.54,0-1.09.01-1.64.04-9.05.47-26.56,2.85-42.27,13.49-13.94,9.44-30.56,28.06-30.56,63.15,0,.21,0,.42,0,.63.11,4.2,1.88,41.94,29.69,73.46,1.56,1.77,2.75,2.95,4.51,4.05,4.21,7.98,12.51,13.16,21.95,13.16,4.81,0,9.49-1.39,13.53-4.01,5.73-3.72,16.34-12.52,22.92-29.67,2.77-7.21,3.89-15.16,3.25-22.99-.74-8.97-2.65-39.85,3.75-60.8.41-1.35,1.73-3.75,2.51-5.18,2.82-5.14,4.04-11.02,3.52-16.99-.69-7.99-4.43-15.31-10.51-20.62-5.72-4.99-13.06-7.74-20.66-7.74h0Z" fill="#12110c"/>
      </g>
      <g>
        <path d="M847.41,595.59c-4.97,0-9.52-2.72-11.87-7.1-8.65-16.1-57.7-97.96-173.68-129.32-6.1-1.65-10.47-7-10.88-13.31-.33-5.12,2.03-9.95,6.06-12.86-10.32-3.24-20.48-8.29-29.17-16.02-3.36-2.5-11.42-9-8.4-18.19.32-.98.81-2.01,1.47-2.99l-5.41-3.62c-6.56-4.39-10.55-11.75-10.67-19.67-.15-10.05-2.41-35.6-20.1-55.66-3.82-4.33-5.03-10.42-3.16-15.89,1.87-5.46,6.56-9.53,12.23-10.6,3.1-.59,6.64-.88,10.83-.88,10.04,0,23.51,1.71,40.23,5.11-17.84-12.88-42.82-20.57-72.65-22.31-5.49-.32-10.25-4.07-11.86-9.33-1.6-5.26.27-11.02,4.64-14.35,11.61-8.8,41.36-29.27,66.91-29.27.89,0,1.79.02,2.66.07.86,0,1.77.05,2.73.13-14.15-10.44-34.32-18.17-63-18.17-16.92,0-35.9,2.74-56.4,8.15-1.12.3-2.28.45-3.44.45-5.08,0-9.66-2.83-11.96-7.38-2.29-4.54-1.84-9.91,1.19-14l7.25-9.81c.09-.12.11-.27.05-.39-6.56-14.07-21.79-50.89-21.51-88.88.05-7.57,6.27-13.73,13.86-13.73,4.34,0,8.49,2.09,11.08,5.58,7.82,10.51,38.96,46.36,124.59,88.32-4.83-16.66-14.3-39.38-32.44-57.39-4.33-4.3-4.75-11.17-.96-15.96,2.35-2.97,5.86-4.56,9.42-4.56,2.17,0,4.37.59,6.33,1.81,1.65,1.03,40.96,25.58,79.26,58.54,28.01,24.1,47.98,46.29,59.8,66.41-.95-3.34-2.07-6.66-3.36-9.93-1.03-2.62-2.14-5.22-3.31-7.73-2.38-5.11-.88-11.18,3.6-14.6,2.15-1.64,4.72-2.46,7.28-2.46,2.76,0,5.52.95,7.76,2.84.78.66,19.24,16.43,37.58,43.83,17.02,25.43,28.08,54.99,31.99,85.47,3.89,30.37.71,61.77-9.2,90.81l-.27.79c-.06,1.26.12,8.89,11.73,24.32,1.72,2.27,42.61,57.62,16.16,153.79-1.6,5.85-6.96,9.93-13.03,9.93h0Z" fill="#12110c"/>
        <path d="M503.4,87.76c.53,0,1.07.23,1.46.74,10.02,13.48,46.74,54.65,148.03,100.97.24.11.49.16.72.16,1,0,1.87-.88,1.71-1.98-1.71-11.66-9.76-53.65-40.23-83.9,0,0,158.92,98.87,145.46,162.96-11.77,56.07-20.63,67.48-22.66,69.46,1-.86,3.64-3.2,7.13-6.94,31.33-33.57,40.1-82.3,23.3-125.04-1.08-2.75-2.28-5.56-3.6-8.4,0,0,17.74,15.02,35.36,41.35,32.66,48.8,40.38,110.16,21.41,165.73-.11.32-.22.65-.33.97,0,0-4.9,10.69,13.56,35.23,0,0,39.36,51.84,14.18,143.4-.2.73-.83,1.12-1.46,1.12-.51,0-1.02-.25-1.31-.79-9.64-17.93-60.77-102.68-181.11-135.22-2.53-.68-2.77-4.18-.35-5.17,7.11-2.93,20.86-6.68,44.68-6.68,15.37,0,34.93,1.56,59.6,5.91.04,0,.08.01.12.01.56,0,.85-.74.36-1.11-5.15-3.8-16.65-13.35-6.98-16.73,1.32-.46,1.31-2.32-.03-2.72-3.94-1.2-10.1-2.56-17.64-2.56-5.45,0-11.64.71-18.24,2.72-10.36,3.15-21.07,5.04-31.9,5.04h-.04c-17.93,0-42.22-3.34-59.09-18.64,0,0-7.69-5.67-3.23-5.67,1.69,0,5.12.81,11.38,3.06,0,0,4.77,2.45,10.25,2.81.05,0,.1,0,.15,0,1.94,0,2.77-2.54,1.11-3.65l-32.93-22.03c-3.3-2.21-5.29-5.9-5.35-9.88-.19-12.31-2.99-40.61-23.1-63.42-2.11-2.39-.82-6.17,2.31-6.77,2.07-.39,4.85-.67,8.59-.66,11.93,0,33.59,2.77,72.84,13.19,0,0-17.94-49.31-104.56-54.37-1.11-.06-1.54-1.47-.66-2.14,8.58-6.5,37.18-26.84,59.66-26.83.77,0,1.53.02,2.28.07,0,0,.02,0,.05,0,1.32,0,28.86.38,44.64,31.67.11.23.31.32.51.32.34,0,.67-.29.56-.72-4.76-17.69-26.05-73.32-105.64-73.32-17.02,0-36.71,2.55-59.46,8.55-.13.03-.25.05-.37.05-1.09,0-1.83-1.29-1.12-2.25l7.25-9.81c2.7-3.65,3.19-8.48,1.28-12.59-6.52-13.97-20.65-48.4-20.39-83.72,0-1.12.92-1.82,1.86-1.82M503.4,63.76h0c-14.15,0-25.75,11.5-25.86,25.64-.26,34.9,11.21,67.95,19.78,87.69l-3.22,4.35c-5.73,7.75-6.6,17.93-2.26,26.54,4.35,8.62,13.04,13.98,22.67,13.98,2.19,0,4.38-.28,6.5-.85,19.5-5.14,37.44-7.75,53.33-7.75,8.48,0,16.11.75,22.97,2.09-15.98,6.84-30.32,16.61-39.53,23.59-8.36,6.34-11.93,17.35-8.88,27.4,3.06,10.05,12.15,17.21,22.64,17.82,2.42.14,4.78.32,7.07.54-3.78,3.22-6.7,7.43-8.36,12.27-3.27,9.54-1.16,20.16,5.51,27.72,15.04,17.06,16.97,39.19,17.1,47.91.17,11.07,5.38,21.4,14.07,28.08-.47,5.91.96,14.4,9.83,22.54,1.28,1.17,2.52,2.18,3.39,2.87,5.72,5.04,12.23,9.32,19.46,12.82-.56,2.46-.78,5.02-.61,7.63.73,11.44,8.65,21.14,19.72,24.13,111.23,30.07,157.99,108.08,166.24,123.42,4.45,8.28,13.05,13.42,22.44,13.42,11.45,0,21.57-7.71,24.61-18.76,6.33-23.02,9.45-45.76,9.26-67.59-.15-17.77-2.47-34.97-6.91-51.15-7.58-27.65-18.92-43.35-20.5-45.44h0c-6.4-8.5-8.43-13.71-9.06-15.9,10.01-30.24,13.16-62.82,9.12-94.34-4.15-32.32-15.88-63.65-33.92-90.62-19.27-28.79-38.97-45.61-39.8-46.32-4.46-3.78-9.98-5.68-15.51-5.68-5.12,0-10.25,1.63-14.56,4.92-1.27.97-2.43,2.05-3.45,3.22-10.54-11.8-23.26-24.1-38.18-36.93-39-33.55-79.06-58.58-80.75-59.63-3.93-2.44-8.32-3.62-12.66-3.62-7.12,0-14.13,3.17-18.84,9.11-7.57,9.58-6.75,23.32,1.92,31.92,7.12,7.07,12.78,15.07,17.26,23.08-61.36-33.88-84.85-60.99-91.33-69.69-4.85-6.52-12.59-10.42-20.71-10.42h0Z" fill="#12110c"/>
      </g>
      <g>
        <path d="M588.89,591.55c-5.24,0-9.88-3.14-11.84-8.01-7.26-18.08-30.17-80.44-19.93-123.82,1.68-7.12,6.32-13.29,12.72-16.92,6.66-3.78,18.72-13.56,24.68-36.63,1.61-6.25,7.25-10.61,13.7-10.61,4.93,0,9.42,2.51,12.01,6.72,7.38,11.99,29.87,41.33,79.26,54.85,5.81,1.59,9.78,6.91,9.66,12.93-.13,6.01-4.31,11.15-10.18,12.5-21.27,4.87-91.16,26.28-97.35,97.32-.58,6.65-6.05,11.67-12.73,11.67h0Z" fill="#12110c"/>
        <path d="M608.21,407.56c.68,0,1.37.32,1.79,1.01,7.56,12.29,32.27,45.35,86.31,60.14,1.12.31,1.1,1.9-.03,2.16-20.2,4.62-99.64,27.83-106.63,107.98-.04.46-.41.71-.78.71-.29,0-.57-.15-.71-.48-5.73-14.27-28.97-75.98-19.39-116.59.93-3.92,3.46-7.25,6.96-9.24,7.9-4.48,23.24-16.43,30.38-44.07.27-1.04,1.17-1.61,2.08-1.61M608.21,383.56c-11.93,0-22.34,8.06-25.32,19.61-5.03,19.49-14.95,26.91-18.98,29.2-9.3,5.27-16.03,14.24-18.47,24.6-4.94,20.93-3.61,47.6,3.96,79.26,5.7,23.83,13.44,44.15,16.51,51.78,3.79,9.44,12.81,15.54,22.98,15.54,12.95,0,23.56-9.73,24.69-22.63,5.49-62.96,68.8-82.25,88.07-86.66,11.24-2.57,19.26-12.42,19.5-23.94.24-11.53-7.36-21.71-18.48-24.76-46.54-12.74-67.04-41.16-72.21-49.57-4.79-7.78-13.1-12.43-22.23-12.43h0Z" fill="#12110c"/>
      </g>
      <g>
        <path d="M589.42,813.87c-4.88,0-9.64-2.23-13.4-6.28-7.97-8.56-17.85-30.03-11.7-117.33,3.24-45.97,12.56-87.12,27.7-122.29,12.16-28.24,24.64-44.29,29.44-49.88,2.39-2.78,5.85-4.37,9.5-4.37,3.95,0,7.71,1.89,10.07,5.06,2.35,3.16,3.07,7.3,1.94,11.08-3.75,12.5-20.67,77.03,14.83,119.9,5.85,7.06,5.46,17.37-.92,23.96-11.68,12.08-69.23,74.86-55.29,124.04,1.08,3.8.3,7.94-2.08,11.09-2.37,3.14-6.14,5.01-10.08,5.01h-.01Z" fill="#12110c"/>
        <path d="M630.96,525.73c.32,0,.63.3.52.69-4.07,13.56-22.34,83.41,17.08,131.01,1.95,2.35,1.81,5.78-.31,7.97-15.79,16.34-73.69,80.99-58.2,135.65.12.41-.18.83-.61.83-3.95,0-20.52-6.1-13.14-110.76,7.42-105.27,45.83-155.36,54.28-165.19.11-.13.26-.19.4-.19M630.96,501.73c-7.16,0-13.94,3.12-18.61,8.56-5.16,6-18.55,23.19-31.36,52.95-15.68,36.41-25.32,78.87-28.65,126.19-2.57,36.53-2.56,65.49.05,86.08,2.43,19.21,7.15,32.01,14.84,40.27,6.06,6.5,13.93,10.09,22.17,10.1,0,0,.02,0,.02,0,7.67,0,15.01-3.65,19.64-9.77,4.64-6.13,6.16-14.2,4.06-21.6-9.42-33.23,22.33-81.33,52.37-112.42,10.63-11,11.29-28.18,1.53-39.96-32.27-38.97-14.69-101.77-12.58-108.8,2.22-7.39.8-15.5-3.8-21.69-4.61-6.2-11.97-9.9-19.7-9.9h0Z" fill="#12110c"/>
      </g>
      <g>
        <path d="M659.01,749.71c-4.71,0-9.1-2.54-11.47-6.63-2.36-4.06-2.37-9.12-.03-13.21,7.12-12.45,28.04-56.09-1.74-94.79-15.22-19.78-21.75-42.48-19.41-67.45,3.75-39.97,29.81-74.53,68.01-90.2,5.92-2.43,12.03-4.46,18.15-6.06,2.38-.62,4.83-.93,7.28-.93,4.05,0,7.97.83,11.67,2.46l18.97,8.38c4.6,2.03,7.84,6.4,8.46,11.39.17,1.42.13,2.84-.11,4.22,2.94.7,5.6,2.33,7.58,4.71,2.7,3.24,3.81,7.47,3.06,11.62-1.83,10-9.74,61.6,13.76,95.34.86,1.23,1.47,2.61,1.82,4.06.58,2.42,1.5,8.59-2.5,13.66-2.53,3.21-6.36,5.05-10.5,5.05h0c-5.07,0-9.85-2.47-16.64-9.12-11.42,33.9-37.74,93.14-89.31,125.46-2.12,1.33-4.55,2.03-7.04,2.03Z" fill="#12110c"/>
        <path d="M719.8,482.45c2.34,0,4.66.48,6.83,1.44l18.97,8.38c1.63.72,1.91,2.92.5,4.01-10.27,7.97-40.51,36.96-32.28,97.09.03.23.21.34.39.34s.36-.11.39-.34c1.94-13.79,11.96-73.99,40.17-84.72.25-.1.51-.14.75-.14,1.27,0,2.36,1.19,2.11,2.56-2.56,14.03-10.05,67.37,15.72,104.35,0,0,.94,3.91-1.34,3.91-2.03,0-6.61-3.11-16.67-14.87-.89-1.04-2.1-1.52-3.29-1.52-1.83,0-3.62,1.14-4.2,3.15-6.94,24.09-31.7,96.04-88.16,131.42-.22.14-.45.2-.66.2-.87,0-1.6-.97-1.09-1.87,8.34-14.58,31.58-63.59-2.64-108.07-15.29-19.87-18.69-40.72-16.97-59.01,3.37-35.94,27.22-66.52,60.62-80.21,5.11-2.1,10.66-4,16.61-5.55,1.4-.36,2.83-.55,4.26-.55M719.8,458.45h0c-3.47,0-6.94.44-10.3,1.32-6.64,1.73-13.26,3.94-19.68,6.57-20.46,8.39-38.29,22.02-51.55,39.42-13.55,17.77-21.8,38.78-23.86,60.76-2.6,27.69,4.96,53.94,21.85,75.89,24.56,31.93,8.76,67.65.83,81.52-4.45,7.79-4.43,17.44.07,25.19,4.51,7.77,12.88,12.6,21.85,12.6,4.74,0,9.37-1.33,13.4-3.86,27.71-17.36,51.56-43.82,70.89-78.63,7.51-13.53,13.4-26.69,17.9-38.12,3.43,1.48,6.96,2.23,10.8,2.23,7.84,0,15.1-3.51,19.93-9.63,5.11-6.47,6.84-15.18,4.75-23.89-.7-2.91-1.94-5.66-3.65-8.12-20.79-29.83-13.48-77.14-11.8-86.32,1.4-7.66-.66-15.49-5.65-21.46-1.5-1.8-3.22-3.38-5.1-4.69-1.68-8.33-7.36-15.46-15.2-18.92l-18.97-8.38c-5.23-2.31-10.79-3.48-16.52-3.48h0Z" fill="#12110c"/>
      </g>
    </g>
    <path d="M252.99,440.34s-1.48-14.51-14.51-14.51c0,0-18.49,1.83-10.08,23.55,8.42,21.72,16.45,39.31,16.45,39.31,0,0,4.38,8.94,6.29,1.48,1.91-7.46,6.65-27.84,1.84-49.84Z" fill="#fff"/>
    <g>
      <path d="M474.3,512.83c-.38,0-.6-.02-.65-.02h-.1s-.11-.01-.11-.01c-130.35-.65-176.73-18.47-177.18-18.65l-.1-.04-.1-.03c-27.06-7.47-23.56-24.47-20.19-40.9.55-2.67,1.07-5.2,1.45-7.67,2.72-17.62,45.29-26.47,58.28-28.76,10.06-1.78,18-9.57,19.75-19.4.07-.39.13-.79.19-1.2.29-2.07-.21-3.91-1.45-5.33-2.01-2.3-5.82-3.42-11.65-3.42-11.33,0-26.65,4.23-27.29,4.41l-.14.05c-.38.14-38.16,13.7-63.66,13.7-10.6,0-17.45-2.3-20.34-6.83-11.93-18.69,30.62-51.83,31.06-52.17,36.98-28.14,51.03-29.56,53.47-29.56.22,0,.35.01.41.02l.35.07.3-.07c1.88-.3,3.86-.46,5.88-.46,23.41,0,49.15,19.98,59.13,28.56.49.42,1.11.65,1.74.65.93,0,1.8-.49,2.29-1.29.48-.79.52-1.76.1-2.59-3.43-6.74-1.53-12.35.67-15.86.69-1.11.73-2.5.1-3.64-.62-1.13-1.8-1.83-3.07-1.83-.21,0-.43.02-.65.06-1.38.25-2.97.38-4.74.38-11.84,0-27.92-5.66-28.08-5.72-18.9-6.85-29.31-15.84-30.92-26.71-2.91-19.59,23.34-39.51,23.61-39.71l.11-.09c43.49-37.86,123.34-59.17,124.14-59.38,18.44-5.59,30.93-9.07,37.32-10.39-1.41,1.17-2.79,2.34-4.13,3.55-15.78,14.34-23.45,22.63-27.11,27.05-.8.96-.96,2.26-.43,3.39.53,1.12,1.66,1.85,2.88,1.85.35,0,.71-.06,1.05-.17,19.04-6.46,42.78-9.74,70.55-9.74s51.27,3.01,65.92,4.8c3.57.44,6.65.81,9,1.05,5.27.54,7.73,1.19,8.84,1.62-.69.4-1.7.85-2.62,1.15l-.12.04-.12.05c-60.43,28.39-79.5,43.15-85.5,49.43-1.11,1.16-1.42,2.81-.81,4.3.61,1.5,2,2.47,3.61,2.53,63.88,2.28,92.32,20.8,92.6,20.98l.09.06.1.05c1.57.82,2.45,1.44,2.94,1.84-.61.18-1.45.33-2.22.38-10.08-.91-19.41-1.38-27.72-1.38-19.57,0-29.22,2.54-33.24,4.05-1.44.54-2.49,1.76-2.81,3.26-.33,1.51.13,3.07,1.23,4.17,24.27,24.38,26.26,48.61,26.28,48.85,3.21,43.2-6.83,66.62-15.82,78.65-9.65,12.92-20.18,15.82-20.29,15.85l-.13.04-.13.05c-1.17.49-3.69,1.07-9.01,1.07-23.19,0-73.79-10.75-88.75-14.04l-.9,3.9c17.93,4.31,29.86,11.41,35.45,21.08,5.1,8.84,2.84,16.81,2.81,16.89-9.27,35.34-27.76,37.13-31.37,37.13ZM463.77,432.87c-1.1,0-2,.9-2,2s.9,2,2,2,2-.9,2-2-.9-2-2-2Z" fill="#fff"/>
      <path d="M496.78,182.85c-14.57,13.35-21.83,21.21-25.37,25.49-1.3,1.57-1.57,3.68-.7,5.51.86,1.82,2.7,3,4.69,3,.57,0,1.14-.09,1.69-.28,18.84-6.39,42.36-9.63,69.91-9.63,26.62,0,51.07,3,65.68,4.79,3.58.44,6.67.82,9.04,1.06,1.01.1,1.91.21,2.7.32-58.64,27.72-77.45,42.33-83.45,48.61-1.64,1.71-2.11,4.24-1.22,6.44.9,2.21,3.02,3.69,5.4,3.77,51.37,1.83,79.56,14.22,88.44,18.88-8.12-.62-15.7-.94-22.59-.94-19.89,0-29.8,2.62-33.94,4.18-2.07.78-3.59,2.54-4.06,4.71-.47,2.18.19,4.43,1.76,6.01,23.6,23.71,25.69,47.36,25.71,47.6,3.14,42.34-6.54,65.25-15.22,77.02-9.23,12.51-19.31,15.36-19.38,15.38l-.28.07-.27.11c-.82.34-2.99.92-8.24.92-22.97,0-73.33-10.7-88.28-13.99-1.36-.33-2.77-.64-4.2-.94l-1.7,7.82s1.49.34,4.11.92c17.05,4.11,28.84,11.04,34.09,20.04,4.7,8.07,2.76,15.12,2.69,15.39l-.02.07-.02.08c-8.88,33.86-26.06,35.57-29.42,35.57-.25,0-.41-.01-.42-.01l-.16-.02h-.27c-129.55-.65-176.01-18.33-176.46-18.51l-.2-.08-.21-.06c-15.2-4.2-18.75-10.98-20.11-15.72-1.95-6.83-.27-14.97,1.35-22.85.55-2.7,1.08-5.25,1.47-7.77,2-12.96,30.57-22.49,56.65-27.09,10.89-1.92,19.47-10.37,21.37-21.02.07-.42.14-.84.2-1.28.47-3.36-.79-5.61-1.92-6.92-2.41-2.77-6.71-4.11-13.16-4.11-11.6,0-27.17,4.3-27.83,4.48l-.15.04-.14.05c-.38.14-37.82,13.58-62.98,13.58-6.79,0-15.54-1.02-18.65-5.9-5.42-8.49,2.7-21.14,10.46-30.26,9.13-10.72,20.02-19.17,20.11-19.24,37.25-28.34,50.84-29.16,52.27-29.16.02,0,.03,0,.05,0l.4.15.93-.15c1.78-.29,3.65-.43,5.56-.43,23.38,0,50.17,21.49,57.82,28.08.85.73,1.93,1.14,3.04,1.14,1.62,0,3.15-.86,4-2.24.85-1.39.92-3.09.17-4.55-2.41-4.75-2.22-9.42.58-13.89,1.08-1.72,1.13-3.89.15-5.67-.98-1.76-2.83-2.86-4.82-2.86-.34,0-.68.03-1.01.09-1.26.23-2.73.35-4.38.35-11.49,0-27.26-5.55-27.39-5.6-18.16-6.58-28.13-15.03-29.64-25.12-2.75-18.37,22.57-37.63,22.82-37.82l.12-.09.11-.1c43.13-37.54,122.54-58.74,123.34-58.95l.07-.02.07-.02c13.74-4.17,23.03-6.81,29.26-8.45M508.34,176.4c-3.1,0-13.53,2.44-41.98,11.07,0,0-80.59,21.19-124.95,59.8,0,0-60.33,45.2,7.85,69.9,0,0,16.42,5.84,28.75,5.84,1.81,0,3.53-.13,5.1-.41.1-.02.2-.03.29-.03,1.17,0,1.94,1.35,1.28,2.41-2.47,3.96-4.6,10.25-.75,17.82.25.49-.15.98-.61.98-.15,0-.3-.05-.43-.17-9.48-8.15-36.12-29.05-60.43-29.05-2.09,0-4.15.15-6.19.48,0,0-.23-.05-.74-.05-3.25,0-17.78,1.9-54.69,29.98,0,0-44.58,34.36-31.52,54.83,3.63,5.69,11.94,7.75,22.02,7.75,26.16,0,64.35-13.82,64.35-13.82,0,0,15.57-4.33,26.76-4.33,6.68,0,11.8,1.54,11.12,6.48-.05.38-.11.76-.18,1.12-1.63,9.14-8.99,16.17-18.12,17.78-16.51,2.91-57.05,11.91-59.91,30.42-2.71,17.56-13.29,41.56,20.18,50.8,0,0,45.67,18.13,177.91,18.79,0,0,.31.03.86.03,4.31,0,23.72-2.09,33.29-38.56,0,0,8.77-28.83-39.71-40.49-2.62-.58-4.11-.92-4.11-.92,1.42.29,2.79.6,4.11.92,14.8,3.26,65.73,14.09,89.18,14.09,4.33,0,7.73-.37,9.78-1.23,0,0,43.93-11.29,37.6-96.58,0,0-1.78-24.93-26.86-50.12-1.3-1.3-.84-3.51.88-4.16,4.83-1.82,14.8-3.93,32.53-3.93,7.7,0,16.86.4,27.69,1.38,0,0,10.59-.58.24-6,0,0-28.29-18.99-93.64-21.32-1.76-.06-2.64-2.18-1.42-3.45,5.68-5.95,24.3-20.53,84.9-49,0,0,14.1-4.56-6.64-6.67-11.87-1.21-41.7-5.87-75.12-5.87-23.62,0-49.04,2.33-71.2,9.84-.14.05-.27.07-.4.07-.94,0-1.59-1.14-.91-1.96,3.33-4.03,10.84-12.23,26.91-26.85,2.01-1.83,4.12-3.55,6.23-5.27,1.38-1.12,2.92-2.37.7-2.37h0Z" fill="#12110c"/>
    </g>
    <path d="M409.73,330.95l32.33-42.54c.11-.14.25-.24.42-.29l4.97-1.57c.51-.16,1.04.19,1.09.72.36,4.09,3.21,18.71,25.31,18.71s27.27-16.95,27.9-20.45c.07-.37.37-.66.75-.69l6.79-.67c.4-.04.78.21.89.6,1.26,4.49,6.62,29.97-34.58,29.88-.02,0-.03,0-.05,0l-36.6,2.39c-4.74.31-9.31,1.92-13.2,4.66l-14.86,10.46c-.79.55-1.74-.43-1.15-1.2Z" fill="#12110c" stroke="#12110c" stroke-miterlimit="10" stroke-width="3"/>
    <path d="M464.81,284.1l22.62-.48s.63,7.88-11.31,7.88-11.31-7.4-11.31-7.4Z" fill="#12110c" stroke="#12110c" stroke-miterlimit="10" stroke-width="3"/>
    <path d="M352.02,526.91s-66.74-24.05-74.47,7.18c0,0-37.55,101.73,57.04,153.27.38.21.8-.21.59-.58-2.03-3.71-9.91-16.9-8.27-26.6.3-1.76,2.38-2.55,3.76-1.43,11.52,9.3,60.31,45.68,108.86,49.41.71.05,1.03-.87.44-1.27-10.61-7.21-53.41-33.61-34.49-73.23,0,0,47.35-65.36-53.48-106.74Z" fill="#fff" stroke="#12110c" stroke-miterlimit="10" stroke-width="3"/>
    <path d="M387.29,531.4c40.39.22,69.16,4.84,85.83,8.54,13.43,2.98,26.33,8.04,38.01,15.29,36.34,22.54,32.45,46.74,32.45,46.74,1.05,13.51-18.6,19.2-32.65,21.53-19.71,3.27-36.43,16.73-43.46,35.44-9.25,24.59-2.16,50.92,1.02,60.41.21.62-.6,1.06-1.02.56-3.71-4.37-9.81-10.11-14.59-14.43-3.66-3.3-7.56-6.31-11.58-9.16-34.57-24.5-23.93-66.65-17.64-83.9,4.92-13.49,3.66-28.49-3.46-40.97-10.29-18.05-27.78-33.68-33.49-38.52-.62-.53-.23-1.54.58-1.54Z" fill="#fff" stroke="#12110c" stroke-miterlimit="10" stroke-width="3"/>
    <path d="M515.17,457.84c4.73,10.84,18.16,51.95-39.82,71.13-.73.24-.65,1.29.1,1.41,12.19,1.94,55.77,12.34,79.73,63.68.57,1.22,2.33,1.12,2.77-.15,3.17-9.24,10.83-36.54,7.14-75.64,0,0-2.49-59.38-48.14-62.94-1.35-.11-2.32,1.27-1.78,2.51Z" fill="#fff" stroke="#12110c" stroke-miterlimit="10" stroke-width="3"/>
    <path d="M574.65,564.56s21.83,43.8,5.78,71.66c-4.57,7.94-12.19,13.64-20.93,16.39-15.09,4.74-58.38,22.97-50.29,74.32,0,0,3.79,21.01,9.58,29.97,0,0-51.97-4.99-46.14-69.82,0,0-4.22-51.65,56.61-58.9,0,0,36.6-.71,45.39-63.61Z" fill="#fff" stroke="#12110c" stroke-miterlimit="10" stroke-width="3"/>
    <path d="M572.99,667.92c-.73-3.77-4.47-6.19-8.27-5.59-13.24,2.08-49.11,11.96-44.34,57.59,0,0,4.2,32.05,29.61,55.44,0,0,6.98,3.16,8.46,7.59.19.56.88.76,1.34.39,2.47-1.99,8.51-7.86,11.63-19.45,1.1-4.08,1.21-8.37.43-12.53-2.32-12.32-7.44-44.79-2.55-69.9.68-3.5,2.01-6.82,3.39-10.11.36-.85.58-1.99.3-3.42Z" fill="#fff" stroke="#12110c" stroke-miterlimit="10" stroke-width="3"/>
    <path d="M572.95,260.3c-1.11-.06-1.54-1.47-.66-2.14,8.87-6.73,40.8-26.52,61.92-32.83,0,0,23.88-6.83,40.04,25.23.31.62,5.91,12.78,5.73,12.11-5.81-21.59-.52-83.88-166.09-66.11-.68.07-.91-.31-.5-.86l7.25-9.81c2.71-3.66,3.18-8.51,1.26-12.63-6.52-13.99-20.63-48.38-20.37-83.66.01-1.77,2.26-2.52,3.31-1.1,10.02,13.47,46.73,54.65,148.04,100.98,1.24.57,2.63-.46,2.43-1.82-1.7-11.65-9.76-53.65-40.23-83.9,0,0,158.92,98.87,145.46,162.96-13.46,64.09-23.11,69.84-23.11,69.84,0,0,3.04-2.48,7.46-7.2,31.17-33.31,40.2-81.64,23.78-124.21-1.18-3.05-2.5-6.18-3.97-9.35,0,0,17.78,15.05,35.41,41.43,32.62,48.78,40.32,110.11,21.35,165.64-.11.32-.22.65-.34.98,0,0-4.9,10.69,13.56,35.23,0,0,39.36,51.84,14.17,143.41-.36,1.3-2.12,1.51-2.76.32-9.64-17.92-60.76-102.68-181.11-135.22-2.53-.68-2.78-4.18-.36-5.17,11.7-4.82,41.37-11.86,104.28-.77.64.11.99-.71.47-1.1-5.15-3.8-16.66-13.36-6.96-16.73,1.31-.45,1.29-2.31-.04-2.72-6.79-2.06-20.15-4.63-35.88.16-10.37,3.16-21.1,5.05-31.94,5.04-17.93,0-42.22-3.34-59.09-18.64,0,0-14.62-10.77,8.15-2.61,0,0,4.77,2.45,10.25,2.81,2.05.14,2.97-2.5,1.26-3.64l-32.93-22.03c-3.3-2.21-5.29-5.89-5.35-9.86-.18-12.3-2.98-40.61-23.08-63.42-2.11-2.4-.85-6.19,2.29-6.79,8.68-1.65,29.87-1.17,81.44,12.52,0,0-17.94-49.31-104.56-54.37Z" fill="#fff" stroke="#12110c" stroke-miterlimit="10" stroke-width="3"/>
    <path d="M593.82,582.29c-5.73-14.27-28.97-75.98-19.39-116.59.93-3.92,3.46-7.25,6.96-9.24,7.9-4.48,23.24-16.43,30.38-44.07.47-1.82,2.89-2.2,3.88-.6,7.56,12.29,32.27,45.35,86.32,60.14,1.12.31,1.1,1.9-.03,2.16-20.2,4.62-99.64,27.83-106.63,107.98-.07.81-1.18.98-1.48.23Z" fill="#fff" stroke="#12110c" stroke-miterlimit="10" stroke-width="3"/>
    <path d="M637.44,524.32c-4.26,13.5-23.52,83.09,15.23,131.24,1.91,2.38,1.73,5.8-.42,7.97-16.02,16.11-74.83,79.94-60.11,134.81.11.42-.19.83-.62.82-3.95-.06-20.43-6.39-11.58-110.93,8.9-105.15,48.02-154.7,56.61-164.41.38-.43,1.08-.04.9.51Z" fill="#fff" stroke="#12110c" stroke-miterlimit="10" stroke-width="3"/>
    <path d="M726.62,483.89l18.97,8.38c1.63.72,1.91,2.92.5,4.01-10.27,7.97-40.51,36.96-32.28,97.09.06.45.72.46.78,0,1.94-13.79,11.96-73.99,40.17-84.72,1.56-.59,3.16.78,2.86,2.42-2.56,14.03-10.05,67.37,15.72,104.35,0,0,3.36,14-18.01-10.96-2.25-2.63-6.54-1.7-7.49,1.63-6.94,24.09-31.7,96.04-88.16,131.42-1.1.69-2.39-.55-1.75-1.68,8.34-14.58,31.58-63.59-2.64-108.07-15.29-19.87-18.69-40.72-16.97-59.01,3.37-35.94,27.22-66.52,60.62-80.21,5.11-2.1,10.66-4,16.61-5.55,3.69-.96,7.6-.65,11.09.89Z" fill="#fff" stroke="#12110c" stroke-miterlimit="10" stroke-width="3"/>
    <path d="M807.85,439.4c1.66-1.85,5.75-4.97,13.61-3.48.83.16,1.58.59,2.1,1.26,3.79,4.85,20.03,27.66,22.82,65.54,0,.09-.12.12-.15.04-2.11-5.92-21-57.78-37.89-61.88-.67-.16-.95-.96-.49-1.47Z" fill="#12110c" stroke="#12110c" stroke-miterlimit="10" stroke-width="3"/>
    <path d="M642.16,331.67s20.67,2.72,30.95,17.09c.9,1.25.96,2.92.21,4.27-3.45,6.21-12.11,25.47,6.15,33.13,15.25,6.4,23.77-.93,23.77-.93,0,0-11.4,18.77-33.88,9.47-13.5-5.59-17.23-18.81-18.49-26.7-.48-3.01-.55-6.06-.34-9.1.35-4.97.34-18.3-8.38-27.22Z" fill="#12110c" stroke="#12110c" stroke-miterlimit="10" stroke-width="3"/>
    <path d="M683.35,361.56l7.59,8.93c.58.69.51,1.73-.19,2.3-1.81,1.47-5.49,3.36-9.28-1.14-3.95-4.68-1.49-8.46.07-10.12.5-.53,1.34-.51,1.8.04Z" fill="#12110c" stroke="#12110c" stroke-miterlimit="10" stroke-width="3"/>
    <polygon points="250.31 413.59 301.88 410.41 268.13 444.02 255.08 425.83 250.31 413.59" fill="#12110c"/>
    <path d="M250.31,508.46s12.1-2.51,12.73,22.94v19.08l15.28-24.55,12.1-11.1,6.37-6.45-14.01-5.08-6.69-9.76-3.49-.4h-9.57l-3.18,4.49-9.55,10.82Z" fill="#12110c"/>
  </g>
  <g id="Laag_5" data-name="Laag 5">
    <rect x="338.63" y="891.6" width="502.84" height="148.73" rx="21.92" ry="21.92" fill="#12110c"/>
    <g>
      <text transform="translate(412.86 891.6)" fill="none" font-family="BrickSansBold, &apos;Brick Sans&apos;" font-size="87.86" stroke="#12110c" stroke-width="24"><tspan x="0" y="0">CODE</tspan></text>
      <text transform="translate(563.51 891.6)" fill="none" font-family="BrickSansBold, &apos;Brick Sans&apos;" font-size="50.56" stroke="#12110c" stroke-width="24"><tspan x="0" y="0">for</tspan></text>
      <g>
        <path d="M404.89,963.96l-3.3,1.9c-1.11.64-1.11,2.24,0,2.88l3.3,1.9c.51.3.83.85.83,1.44v53.8c0,4.64-3.77,8.41-8.41,8.41h-57.02c-.92,0-1.66-.74-1.66-1.66v-130.87c0-.92.74-1.66,1.66-1.66h57.02c4.64,0,8.41,3.77,8.41,8.41v54.01c0,.59-.32,1.14-.83,1.44ZM375.58,931.99c0-2.79-2.26-5.05-5.05-5.05h0c-.92,0-1.66.74-1.66,1.66v23.51c0,.92.74,1.66,1.66,1.66h0c2.79,0,5.05-2.26,5.05-5.05v-16.75ZM375.58,985.58c0-2.74-2.22-4.96-4.96-4.96h-.09c-.92,0-1.66.74-1.66,1.66v23.51c0,.92.74,1.66,1.66,1.66h.09c2.74,0,4.96-2.22,4.96-4.96v-16.92Z" fill="none" stroke="#12110c" stroke-width="24"/>
        <path d="M445.39,926.94v26.84h23.55c3.68,0,6.66,2.98,6.66,6.66v20.18h-30.2v26.84h30.14c3.69,0,6.69,3,6.69,6.69v20.15h-67.1v-134.2h60.36c3.72,0,6.74,3.02,6.74,6.74v20.1h-36.83Z" fill="none" stroke="#12110c" stroke-width="24"/>
        <path d="M558.13,1014.16v20.14h-67.1v-134.2h23.49c3.71,0,6.71,3,6.71,6.71v100.65h30.21c3.7,0,6.7,3,6.7,6.7Z" fill="none" stroke="#12110c" stroke-width="24"/>
        <path d="M603.47,963.95v-35.74c0-.7-.57-1.27-1.27-1.27h-4.18c-.7,0-1.27.57-1.27,1.27v78.03c0,.7.57,1.27,1.27,1.27l10.96-.04c.7,0,1.26-.57,1.26-1.27v-12.16h-6.78v-23.38h30.19v56.94c0,3.7-3,6.7-6.7,6.7h-53.71c-3.7,0-6.7-3-6.7-6.7v-120.81c0-3.7,3-6.7,6.7-6.7h53.71c3.7,0,6.7,3,6.7,6.7v57.15h-30.19Z" fill="none" stroke="#12110c" stroke-width="24"/>
        <path d="M673.44,906.75v127.55h-30.19v-134.2h23.54c3.67,0,6.65,2.98,6.65,6.65Z" fill="none" stroke="#12110c" stroke-width="24"/>
        <path d="M750.22,900.1v127.49c0,3.71-3.01,6.71-6.71,6.71h-53.68c-3.71,0-6.71-3-6.71-6.71v-127.49h30.19v105.96c0,.77.62,1.4,1.4,1.4h3.91c.77,0,1.4-.62,1.4-1.4v-105.96h30.2Z" fill="none" stroke="#12110c" stroke-width="24"/>
        <path d="M833.88,905.41v125.49c0,1.88-1.52,3.41-3.41,3.41h-26.73v-66.98l-6.68,66.71h-.05s-6.82-66.72-6.82-66.72v67h-30.19v-128.87c0-2.94,2.39-5.33,5.33-5.33h24.94l6.74,68.09,7.43-68.09h24.14c2.93,0,5.3,2.38,5.3,5.31Z" fill="none" stroke="#12110c" stroke-width="24"/>
      </g>
    </g>
    <g>
      <text transform="translate(412.86 891.6)" fill="#fff" font-family="BrickSansBold, &apos;Brick Sans&apos;" font-size="87.86"><tspan x="0" y="0">CODE</tspan></text>
      <text transform="translate(563.51 891.6)" fill="#fff" font-family="BrickSansBold, &apos;Brick Sans&apos;" font-size="50.56"><tspan x="0" y="0">for</tspan></text>
      <g>
        <path d="M405.72,963.48l-6.62,3.83,6.62,3.82v56.42c0,3.73-3.02,6.75-6.75,6.75h-60.35v-134.2h60.35c3.73,0,6.75,3.02,6.75,6.75v56.63ZM375.58,930.33c0-1.87-1.52-3.38-3.38-3.38h-3.33v26.84h3.33c1.87,0,3.38-1.52,3.38-3.38v-20.07ZM375.58,983.91c0-1.82-1.48-3.29-3.29-3.29h-3.42v26.84h3.42c1.82,0,3.29-1.47,3.29-3.29v-20.25Z" fill="#fff"/>
        <path d="M445.39,926.94v26.84h23.55c3.68,0,6.66,2.98,6.66,6.66v20.18h-30.2v26.84h30.14c3.69,0,6.69,3,6.69,6.69v20.15h-67.1v-134.2h60.36c3.72,0,6.74,3.02,6.74,6.74v20.1h-36.83Z" fill="#fff"/>
        <path d="M558.13,1014.16v20.14h-67.1v-134.2h23.49c3.71,0,6.71,3,6.71,6.71v100.65h30.21c3.7,0,6.7,3,6.7,6.7Z" fill="#fff"/>
        <path d="M603.47,963.95v-35.74c0-.7-.57-1.27-1.27-1.27h-4.18c-.7,0-1.27.57-1.27,1.27v78.03c0,.7.57,1.27,1.27,1.27l10.96-.04c.7,0,1.26-.57,1.26-1.27v-12.16h-6.78v-23.38h30.19v56.94c0,3.7-3,6.7-6.7,6.7h-53.71c-3.7,0-6.7-3-6.7-6.7v-120.81c0-3.7,3-6.7,6.7-6.7h53.71c3.7,0,6.7,3,6.7,6.7v57.15h-30.19Z" fill="#fff"/>
        <path d="M673.44,906.75v127.55h-30.19v-134.2h23.54c3.67,0,6.65,2.98,6.65,6.65Z" fill="#fff"/>
        <path d="M750.22,900.1v127.49c0,3.71-3.01,6.71-6.71,6.71h-53.68c-3.71,0-6.71-3-6.71-6.71v-127.49h30.19v105.96c0,.77.62,1.4,1.4,1.4h3.91c.77,0,1.4-.62,1.4-1.4v-105.96h30.2Z" fill="#fff"/>
        <path d="M833.88,905.41v128.89h-30.13v-66.98l-5.24,31.14s-3.38-.06-3.39-.09l-4.93-31.06v67h-30.19v-128.87c0-2.94,2.39-5.33,5.33-5.33h24.94l6.74,68.09,7.43-68.09h24.14c2.93,0,5.3,2.38,5.3,5.31Z" fill="#fff"/>
      </g>
    </g>
  </g>
</svg>